<svg width="48" height="48" viewBox="0 0 48 48" fill="none" xmlns="http://www.w3.org/2000/svg">
<g clip-path="url(#clip0_1_4352)">
<path d="M42.0216 4.20682C37.3924 1.52127 25.6401 15.9774 25.6401 15.9774L43.0124 26.8046C43.0038 26.8046 45.9761 6.50144 42.0216 4.20682Z" fill="#111111"/>
<path d="M43.0037 27.6799C42.8415 27.6799 42.6792 27.6374 42.534 27.5439L25.1703 16.7167C24.9568 16.5807 24.8116 16.3683 24.7689 16.1218C24.7262 15.8754 24.7945 15.6204 24.9482 15.4249C25.9902 14.1501 35.2144 3 40.6977 3C41.3553 3 41.9447 3.15297 42.4657 3.45042C43.7212 4.1813 45.344 6.31445 44.8827 16.4023C44.6351 21.7479 43.892 26.8725 43.8835 26.9235C43.8408 27.2125 43.6529 27.4674 43.3795 27.5949C43.26 27.6544 43.1319 27.6799 43.0037 27.6799ZM26.9553 15.7649L42.3119 25.3343C42.5425 23.4816 42.944 19.9462 43.1148 16.3088C43.5504 6.85836 42.0472 5.23513 41.5774 4.96317C41.3297 4.8187 41.0393 4.75071 40.6977 4.75071C37.0336 4.75071 30.0557 12.102 26.9553 15.7649Z" fill="#111111"/>
<path d="M39.7582 8.50703C36.5809 6.66284 28.5098 16.5892 28.5098 16.5892L40.4329 24.0254C40.4414 24.0254 42.4742 10.0793 39.7582 8.50703Z" fill="#FF9900"/>
<path d="M5.98724 4.20682C10.6164 1.52127 22.3687 15.9774 22.3687 15.9774L4.99649 26.8046C4.99649 26.8046 2.03279 6.50144 5.98724 4.20682Z" fill="#111111"/>
<path d="M4.99644 27.6799C4.86833 27.6799 4.74021 27.6544 4.62918 27.6034C4.35587 27.4759 4.16797 27.2295 4.12527 26.932C4.11673 26.881 3.37367 21.7564 3.12598 16.4108C2.66477 6.32295 4.279 4.1813 5.54306 3.45042C6.05552 3.15297 6.65338 3 7.31103 3C12.7943 3 22.0185 14.1501 23.052 15.4249C23.2142 15.6204 23.274 15.8754 23.2399 16.1218C23.1972 16.3683 23.052 16.5892 22.8384 16.7167L5.46619 27.5439C5.321 27.6374 5.15872 27.6799 4.99644 27.6799ZM7.31103 4.75071C6.9694 4.75071 6.679 4.8187 6.43132 4.96317C5.96157 5.23513 4.44982 6.86686 4.89395 16.3258C5.06477 19.9547 5.45765 23.4901 5.6968 25.3343L21.0534 15.7649C17.9445 12.102 10.9665 4.75071 7.31103 4.75071Z" fill="#111111"/>
<path d="M8.24196 8.50703C11.4192 6.66284 19.4904 16.5892 19.4904 16.5892L7.55868 24.0254C7.55868 24.0254 5.52594 10.0793 8.24196 8.50703Z" fill="#FF9900"/>
<path d="M42.8585 20.5581C40.2792 13.5128 31.3966 10.7762 24.0002 10.7762C16.6037 10.7762 7.72117 13.5128 5.14181 20.5581C2.92116 26.6261 0.879883 34.9122 0.879883 34.9122C3.42508 42.1275 15.1432 44.1247 24.0002 44.1247C32.8657 44.1247 44.5753 42.1275 47.1205 34.9122C47.1205 34.9122 45.0877 26.6261 42.8585 20.5581Z" fill="#FF9900"/>
<path d="M36.1452 35.1587C27.7239 35.1587 33.5659 29.1842 24.3075 29.1842C15.0491 29.1842 20.8911 35.1587 12.4698 35.1587C4.64629 35.1587 -6.72168 34.8952 -6.72168 34.8952L11.1886 47.0822H24.3075H37.4264L55.3452 34.8868C55.3367 34.8868 43.9687 35.1587 36.1452 35.1587Z" fill="white"/>
<path d="M37.4178 30.561C37.4178 29.3202 36.4014 28.3088 35.1545 28.3088C33.9075 28.3088 32.8911 29.3202 32.8911 30.561C32.8911 31.8018 33.9075 32.8131 35.1545 32.8131C36.41 32.8131 37.4178 31.8103 37.4178 30.561Z" fill="#111111"/>
<path d="M11.2739 30.561C11.2739 29.3202 12.2903 28.3088 13.5373 28.3088C14.7842 28.3088 15.8006 29.3202 15.8006 30.561C15.8006 31.8018 14.7928 32.8131 13.5373 32.8131C12.2903 32.8131 11.2739 31.8103 11.2739 30.561Z" fill="#111111"/>
<path d="M26.6906 32.796C25.5461 33.5269 25.3412 32.66 25.3412 31.6997C25.3412 30.8583 25.4095 29.8555 24.3077 29.8555C23.2059 29.8555 23.2743 30.8583 23.2743 31.6997C23.2743 32.66 23.0607 33.5269 21.9248 32.796C20.7888 32.0736 19.67 33.6118 21.1219 34.5042C22.386 35.2861 23.9234 34.6997 24.3077 34.3172C24.692 34.6997 26.2294 35.2861 27.4935 34.5042C28.9369 33.6118 27.8266 32.0651 26.6906 32.796Z" fill="#111111"/>
<path d="M25.8191 29.7535C25.4604 29.3626 24.8711 29.1841 24.3159 29.1841C23.7522 29.1841 23.1629 29.371 22.8127 29.7535C22.155 30.4759 22.1465 31.6912 24.2561 32.2436H24.3757C26.4853 31.6912 26.4767 30.4759 25.8191 29.7535Z" fill="#111111"/>
<path d="M24.0001 45C19.1916 45 3.26273 44.2946 0.0513366 35.2012C-0.00844987 35.0397 -0.0169908 34.8697 0.0257138 34.6997C0.0427957 34.6148 2.10116 26.2946 4.31326 20.2522C7.11468 12.6119 16.672 9.90088 24.0001 9.90088C31.3282 9.90088 40.8855 12.6119 43.6869 20.2607C45.899 26.3031 47.9574 34.6233 47.9745 34.7082C48.0172 34.8782 48.0086 35.0482 47.9489 35.2097C44.7375 44.2946 28.8086 45 24.0001 45ZM1.80223 34.8612C4.8428 42.6374 19.5332 43.2493 24.0001 43.2493C28.467 43.2493 43.1659 42.6374 46.198 34.8612C45.8307 33.4165 43.9944 26.2097 42.03 20.8556C39.536 14.0567 30.756 11.6516 23.9916 11.6516C17.2271 11.6516 8.44707 14.0652 5.95312 20.8556C4.00579 26.2182 2.16095 33.4165 1.80223 34.8612Z" fill="#111111"/>
</g>
<defs>
<clipPath id="clip0_1_4352">
<rect width="48" height="42" fill="white" transform="translate(0 3)"/>
</clipPath>
</defs>
</svg>
