<svg width="48" height="43" viewBox="0 0 48 43" fill="none" xmlns="http://www.w3.org/2000/svg">
<g clip-path="url(#clip0_569_1649)">
<path d="M42.0216 1.21683C37.3924 -1.46872 25.6401 12.9874 25.6401 12.9874L43.0124 23.8146C43.0038 23.8146 45.9761 3.51145 42.0216 1.21683Z" fill="#111111"/>
<path d="M43.0037 24.6899C42.8415 24.6899 42.6792 24.6474 42.534 24.5539L25.1703 13.7267C24.9568 13.5907 24.8116 13.3783 24.7689 13.1318C24.7262 12.8854 24.7945 12.6304 24.9482 12.4349C25.9902 11.1602 35.2144 0.0100098 40.6977 0.0100098C41.3553 0.0100098 41.9447 0.162984 42.4657 0.460435C43.7212 1.19131 45.344 3.32446 44.8827 13.4123C44.6351 18.7579 43.892 23.8825 43.8835 23.9335C43.8408 24.2225 43.6529 24.4774 43.3795 24.6049C43.26 24.6644 43.1319 24.6899 43.0037 24.6899ZM26.9553 12.7749L42.3119 22.3443C42.5425 20.4916 42.944 16.9562 43.1148 13.3188C43.5504 3.86837 42.0472 2.24514 41.5774 1.97318C41.3297 1.82871 41.0393 1.76072 40.6977 1.76072C37.0336 1.76072 30.0557 9.11199 26.9553 12.7749Z" fill="#111111"/>
<path d="M39.7582 5.5171C36.5809 3.67291 28.5098 13.5993 28.5098 13.5993L40.4329 21.0355C40.4414 21.0355 42.4742 7.08934 39.7582 5.5171Z" fill="#FF9900"/>
<path d="M5.98724 1.21683C10.6164 -1.46872 22.3687 12.9874 22.3687 12.9874L4.99649 23.8146C4.99649 23.8146 2.03279 3.51145 5.98724 1.21683Z" fill="#111111"/>
<path d="M4.99644 24.6899C4.86833 24.6899 4.74021 24.6644 4.62918 24.6134C4.35587 24.4859 4.16797 24.2395 4.12527 23.942C4.11673 23.891 3.37367 18.7664 3.12598 13.4208C2.66477 3.33296 4.279 1.19131 5.54306 0.460435C6.05552 0.162984 6.65338 0.0100098 7.31103 0.0100098C12.7943 0.0100098 22.0185 11.1602 23.052 12.4349C23.2142 12.6304 23.274 12.8854 23.2399 13.1318C23.1972 13.3783 23.052 13.5992 22.8384 13.7267L5.46619 24.5539C5.321 24.6474 5.15872 24.6899 4.99644 24.6899ZM7.31103 1.76072C6.9694 1.76072 6.679 1.82871 6.43132 1.97318C5.96157 2.24514 4.44982 3.87687 4.89395 13.3358C5.06477 16.9647 5.45765 20.5001 5.6968 22.3443L21.0534 12.7749C17.9445 9.11199 10.9665 1.76072 7.31103 1.76072Z" fill="#111111"/>
<path d="M8.24196 5.5171C11.4192 3.67291 19.4904 13.5993 19.4904 13.5993L7.55868 21.0355C7.55868 21.0355 5.52594 7.08934 8.24196 5.5171Z" fill="#FF9900"/>
<path d="M42.8585 17.5681C40.2792 10.5227 31.3966 7.78619 24.0002 7.78619C16.6037 7.78619 7.72117 10.5227 5.14181 17.5681C2.92116 23.636 0.879883 31.9222 0.879883 31.9222C3.42508 39.1375 15.1432 41.1346 24.0002 41.1346C32.8657 41.1346 44.5753 39.1375 47.1205 31.9222C47.1205 31.9222 45.0877 23.636 42.8585 17.5681Z" fill="#FF9900"/>
<path d="M36.1452 32.1687C27.7239 32.1687 33.5659 26.1942 24.3075 26.1942C15.0491 26.1942 20.8911 32.1687 12.4698 32.1687C4.64629 32.1687 -6.72168 31.9052 -6.72168 31.9052L11.1886 44.0922H24.3075H37.4264L55.3452 31.8967C55.3367 31.8967 43.9687 32.1687 36.1452 32.1687Z" fill="white"/>
<path d="M37.4178 27.5709C37.4178 26.3301 36.4014 25.3188 35.1545 25.3188C33.9075 25.3188 32.8911 26.3301 32.8911 27.5709C32.8911 28.8117 33.9075 29.823 35.1545 29.823C36.41 29.823 37.4178 28.8202 37.4178 27.5709Z" fill="#111111"/>
<path d="M11.2739 27.5709C11.2739 26.3301 12.2903 25.3188 13.5373 25.3188C14.7842 25.3188 15.8006 26.3301 15.8006 27.5709C15.8006 28.8117 14.7928 29.823 13.5373 29.823C12.2903 29.823 11.2739 28.8202 11.2739 27.5709Z" fill="#111111"/>
<path d="M26.6906 29.806C25.5461 30.5369 25.3412 29.6701 25.3412 28.7097C25.3412 27.8684 25.4095 26.8655 24.3077 26.8655C23.2059 26.8655 23.2743 27.8684 23.2743 28.7097C23.2743 29.6701 23.0607 30.5369 21.9248 29.806C20.7888 29.0837 19.67 30.6219 21.1219 31.5143C22.386 32.2961 23.9234 31.7097 24.3077 31.3273C24.692 31.7097 26.2294 32.2961 27.4935 31.5143C28.9369 30.6219 27.8266 29.0752 26.6906 29.806Z" fill="#111111"/>
<path d="M25.8191 26.7636C25.4604 26.3726 24.8711 26.1942 24.3159 26.1942C23.7522 26.1942 23.1629 26.3811 22.8127 26.7636C22.155 27.4859 22.1465 28.7012 24.2561 29.2536H24.3757C26.4853 28.7012 26.4767 27.4859 25.8191 26.7636Z" fill="#111111"/>
<path d="M24.0001 42.01C19.1916 42.01 3.26273 41.3047 0.0513366 32.2112C-0.00844987 32.0497 -0.0169908 31.8797 0.0257138 31.7098C0.0427957 31.6248 2.10116 23.3047 4.31326 17.2622C7.11468 9.62194 16.672 6.91089 24.0001 6.91089C31.3282 6.91089 40.8855 9.62194 43.6869 17.2707C45.899 23.3132 47.9574 31.6333 47.9745 31.7183C48.0172 31.8882 48.0086 32.0582 47.9489 32.2197C44.7375 41.3047 28.8086 42.01 24.0001 42.01ZM1.80223 31.8712C4.8428 39.6474 19.5332 40.2593 24.0001 40.2593C28.467 40.2593 43.1659 39.6474 46.198 31.8712C45.8307 30.4265 43.9944 23.2197 42.03 17.8656C39.536 11.0667 30.756 8.6616 23.9916 8.6616C17.2271 8.6616 8.44707 11.0752 5.95312 17.8656C4.00579 23.2282 2.16095 30.4265 1.80223 31.8712Z" fill="#111111"/>
</g>
<defs>
<clipPath id="clip0_569_1649">
<rect width="48" height="42" fill="white" transform="translate(0 0.0100098)"/>
</clipPath>
</defs>
</svg>
