<svg width="24" height="25" viewBox="0 0 24 25" fill="none" xmlns="http://www.w3.org/2000/svg">
<path fill-rule="evenodd" clip-rule="evenodd" d="M17 15.4386V16.01C17 17.6669 15.6569 19.01 14 19.01H5C3.34315 19.01 2 17.6669 2 16.01V8.01001C2 6.35316 3.34315 5.01001 5 5.01001H14C15.6569 5.01001 17 6.35316 17 8.01001V8.58143L18.8375 7.26891C20.1613 6.32339 22 7.26963 22 8.89638V15.1236C22 16.7504 20.1613 17.6966 18.8375 16.7511L17 15.4386ZM5 7.01001H14C14.5523 7.01001 15 7.45772 15 8.01001V16.01C15 16.5623 14.5523 17.01 14 17.01H5C4.44772 17.01 4 16.5623 4 16.01V8.01001C4 7.45773 4.44772 7.01001 5 7.01001ZM17 12.9808L20 15.1236V8.89638L17 11.0392V12.9808Z" fill="#6F767E"/>
</svg>
