<svg width="16" height="16" viewBox="0 0 16 16" fill="none" xmlns="http://www.w3.org/2000/svg">
<path fill-rule="evenodd" clip-rule="evenodd" d="M14.6666 8.00004C14.6666 11.6819 11.6818 14.6667 7.99992 14.6667C4.31802 14.6667 1.33325 11.6819 1.33325 8.00004C1.33325 4.31814 4.31802 1.33337 7.99992 1.33337C11.6818 1.33337 14.6666 4.31814 14.6666 8.00004ZM7.99992 7.33337C8.36811 7.33337 8.66659 7.63185 8.66659 8.00004V11.334C8.66659 11.7022 8.36811 12.0006 7.99992 12.0006C7.63173 12.0006 7.33325 11.7022 7.33325 11.334V8.00004C7.33325 7.63185 7.63173 7.33337 7.99992 7.33337ZM7.99992 6.00004C8.36811 6.00004 8.66659 5.70156 8.66659 5.33337C8.66659 4.96518 8.36811 4.66671 7.99992 4.66671C7.63173 4.66671 7.33325 4.96518 7.33325 5.33337C7.33325 5.70156 7.63173 6.00004 7.99992 6.00004Z" fill="#9A9FA5"/>
</svg>
