<svg width="150" height="87" viewBox="0 0 150 87" fill="none" xmlns="http://www.w3.org/2000/svg">
<mask id="mask0_123_2475" style="mask-type:alpha" maskUnits="userSpaceOnUse" x="0" y="0" width="150" height="94">
<rect x="0.310547" width="149.38" height="94" fill="#C4C4C4"/>
</mask>
<g mask="url(#mask0_123_2475)">
<path d="M125.014 3.30326C112.41 -4.04829 80.4102 35.5244 80.4102 35.5244L127.712 65.1633C127.688 65.1633 135.781 9.58465 125.014 3.30326Z" fill="#111111"/>
<path d="M127.688 67.5598C127.246 67.5598 126.805 67.4435 126.409 67.1876L79.131 37.5487C78.5496 37.1765 78.1542 36.5949 78.038 35.9202C77.9217 35.2456 78.1077 34.5476 78.5263 34.0125C81.3635 30.5229 106.479 0 121.409 0C123.2 0 124.805 0.418759 126.223 1.23301C129.642 3.23375 134.06 9.07311 132.804 36.688C132.13 51.3213 130.107 65.3497 130.084 65.4893C129.967 66.2803 129.456 66.9782 128.711 67.3272C128.386 67.49 128.037 67.5598 127.688 67.5598ZM83.9913 34.9431L125.805 61.1388C126.432 56.0672 127.525 46.3892 127.991 36.432C129.177 10.562 125.084 6.11854 123.805 5.37408C123.13 4.97858 122.34 4.79247 121.409 4.79247C111.433 4.79247 92.4331 24.9162 83.9913 34.9431Z" fill="#111111"/>
<path d="M118.85 15.0746C110.199 10.0263 88.2227 37.1991 88.2227 37.1991L120.687 57.5554C120.71 57.5554 126.245 19.3785 118.85 15.0746Z" fill="#FF9900"/>
<path d="M26.9018 3.30326C39.5062 -4.04829 71.5057 35.5244 71.5057 35.5244L24.2042 65.1633C24.2042 65.1633 16.1345 9.58465 26.9018 3.30326Z" fill="#111111"/>
<path d="M24.2029 67.5598C23.8541 67.5598 23.5053 67.49 23.203 67.3504C22.4588 67.0015 21.9472 66.3268 21.8309 65.5125C21.8076 65.373 19.7844 51.3445 19.11 36.7112C17.8542 9.09638 22.2495 3.23375 25.6913 1.23301C27.0866 0.418759 28.7145 0 30.5052 0C45.4351 0 70.551 30.5229 73.3649 34.0125C73.8067 34.5476 73.9695 35.2456 73.8765 35.9202C73.7602 36.5949 73.3649 37.1998 72.7835 37.5487L25.482 67.1876C25.0866 67.4435 24.6448 67.5598 24.2029 67.5598ZM30.5052 4.79247C29.5749 4.79247 28.7843 4.97858 28.1098 5.37408C26.8308 6.11854 22.7146 10.5853 23.9239 36.4786C24.389 46.4125 25.4587 56.0905 26.1099 61.1388L67.9231 34.9431C59.4581 24.9162 40.4585 4.79247 30.5052 4.79247Z" fill="#111111"/>
<path d="M33.0371 15.0746C41.6881 10.0263 63.6645 37.1991 63.6645 37.1991L31.1767 57.5554C31.1767 57.5554 25.6419 19.3785 33.0371 15.0746Z" fill="#FF9900"/>
<path d="M127.293 48.0644C120.269 28.7782 96.0838 21.2871 75.9446 21.2871C55.8054 21.2871 31.6198 28.7782 24.5966 48.0644C18.5502 64.6752 12.9922 87.358 12.9922 87.358C19.9223 107.109 51.8287 112.577 75.9446 112.577C100.084 112.577 131.967 107.109 138.897 87.358C138.897 87.358 133.362 64.6752 127.293 48.0644Z" fill="#FF9900"/>
<path d="M109.014 88.0326C86.084 88.0326 101.991 71.6777 76.7818 71.6777C51.573 71.6777 67.4797 88.0326 44.5498 88.0326C23.2479 88.0326 -7.70508 87.3114 -7.70508 87.3114L41.0615 120.673H76.7818H112.502L161.292 87.2881C161.269 87.2881 130.316 88.0326 109.014 88.0326Z" fill="white"/>
<path d="M112.478 75.4463C112.478 72.0497 109.71 69.2812 106.315 69.2812C102.92 69.2812 100.152 72.0497 100.152 75.4463C100.152 78.8429 102.92 81.6114 106.315 81.6114C109.734 81.6114 112.478 78.8662 112.478 75.4463Z" fill="#111111"/>
<path d="M41.293 75.4463C41.293 72.0497 44.0604 69.2812 47.4557 69.2812C50.8509 69.2812 53.6183 72.0497 53.6183 75.4463C53.6183 78.8429 50.8742 81.6114 47.4557 81.6114C44.0604 81.6114 41.293 78.8662 41.293 75.4463Z" fill="#111111"/>
<path d="M83.2712 81.5651C80.155 83.5658 79.5969 81.1929 79.5969 78.564C79.5969 76.2608 79.7829 73.5156 76.783 73.5156C73.783 73.5156 73.9691 76.2608 73.9691 78.564C73.9691 81.1929 73.3877 83.5658 70.2947 81.5651C67.2017 79.5876 64.1553 83.7985 68.1087 86.2412C71.5505 88.3816 75.7365 86.7763 76.783 85.7294C77.8295 86.7763 82.0154 88.3816 85.4572 86.2412C89.3874 83.7985 86.3642 79.5644 83.2712 81.5651Z" fill="#111111"/>
<path d="M80.8984 73.2364C79.9216 72.1663 78.317 71.6777 76.8054 71.6777C75.2706 71.6777 73.6659 72.1895 72.7125 73.2364C70.9218 75.2139 70.8986 78.5407 76.6426 80.0529H76.9682C82.7123 78.5407 82.689 75.2139 80.8984 73.2364Z" fill="#111111"/>
<path d="M75.9444 114.973C62.8516 114.973 19.4802 113.042 10.7362 88.1487C10.5734 87.7067 10.5501 87.2414 10.6664 86.7761C10.7129 86.5435 16.3175 63.7676 22.3406 47.2267C29.9684 26.312 55.9912 18.8906 75.9444 18.8906C95.8975 18.8906 121.92 26.312 129.548 47.2499C135.571 63.7909 141.176 86.5668 141.222 86.7994C141.339 87.2647 141.315 87.73 141.153 88.172C132.409 113.042 89.0372 114.973 75.9444 114.973ZM15.5035 87.2182C23.7825 108.505 63.7818 110.18 75.9444 110.18C88.1069 110.18 128.13 108.505 136.385 87.2182C135.385 83.2632 130.385 63.535 125.037 48.8784C118.246 30.2669 94.3394 23.6831 75.9211 23.6831C57.5028 23.6831 33.5963 30.2902 26.8057 48.8784C21.5034 63.5583 16.4803 83.2632 15.5035 87.2182Z" fill="#111111"/>
</g>
</svg>
