<svg width="48" height="43" viewBox="0 0 48 43" fill="none" xmlns="http://www.w3.org/2000/svg">
<path d="M23.9779 41.1427C36.2455 41.1427 46.1903 37.2558 46.1903 32.461C46.1903 27.6662 36.2455 23.7793 23.9779 23.7793C11.7104 23.7793 1.76562 27.6662 1.76562 32.461C1.76562 37.2558 11.7104 41.1427 23.9779 41.1427Z" fill="white"/>
<path d="M46.0832 32.3957C46.1327 32.2727 45.77 32.2645 40.9979 32.3137C34.5856 32.3711 33.7861 32.3137 32.558 31.6988C31.775 31.3053 31.2393 30.6905 30.5717 29.4198C29.6486 27.6572 28.9727 27.0751 27.382 26.6734C26.6237 26.4849 24.7858 26.2553 24.6951 26.3455C24.6704 26.3701 24.7198 26.3865 24.8105 26.3865C24.8929 26.3947 25.0742 26.4357 25.1979 26.4931C25.3957 26.5751 25.2556 26.5915 24.3077 26.5915C23.3599 26.5915 23.2198 26.5751 23.4176 26.4931C23.5412 26.4357 23.739 26.3947 23.8462 26.3865C23.9533 26.3865 24.0275 26.3619 24.0028 26.3373C23.9286 26.2717 22.0824 26.4603 21.4312 26.5997C21.1098 26.6734 20.5493 26.8702 20.1785 27.0424C19.2389 27.4932 18.7114 28.0753 17.9613 29.4936C16.8899 31.5185 16.0245 32.0759 13.5519 32.2891C12.6535 32.3629 4.77407 32.3383 2.7218 32.2481C1.93881 32.2153 1.8399 32.2235 1.88111 32.3383C1.91408 32.4285 1.88111 32.4612 1.741 32.4366C1.4278 32.3957 1.51022 31.748 2.12013 29.4608C3.6614 23.673 5.34277 18.3279 6.12577 16.6801C6.80986 15.2618 8.35112 13.4582 9.76051 12.4335C12.5958 10.3758 16.4201 9.0559 20.9285 8.58861C22.206 8.45744 25.849 8.45744 27.0688 8.58861C32.1129 9.13788 36.1021 10.6381 38.9786 13.0401C40.6352 14.4338 41.7067 16.0242 42.5309 18.3279C43.9238 22.2301 46.4376 31.0676 46.4376 32.0595C46.4376 32.5104 46.4294 32.535 46.2316 32.535C46.075 32.535 46.042 32.5022 46.0832 32.3957ZM14.0793 29.5837C14.986 29.2394 15.6618 28.1737 15.4558 27.3949C15.2909 26.7882 14.8871 26.2963 14.3101 26.0012C13.659 25.6651 13.387 25.6651 12.7441 25.9848C12.1672 26.2635 11.821 26.6816 11.6067 27.3129C11.4749 27.6982 11.4749 27.7556 11.6067 28.1573C11.7963 28.7475 12.3568 29.3624 12.9172 29.5755C13.4612 29.7805 13.5354 29.7805 14.0793 29.5837ZM35.6405 29.6165C36.5801 29.3378 37.3302 28.2229 37.1159 27.4195C36.9263 26.6816 36.2752 26.0176 35.5334 25.7963C34.8081 25.5831 33.8767 26.0996 33.4317 26.9686C33.2009 27.4031 33.1597 27.5506 33.2009 27.8458C33.2998 28.5754 33.885 29.2968 34.6185 29.5837C35.113 29.7805 35.1048 29.7723 35.6405 29.6165Z" fill="#FF9900"/>
<path d="M6.54688 11.7366C6.54688 7.88351 6.95898 6.03896 7.98099 5.28474C8.32716 5.0224 9.56347 4.99781 10.3217 5.22735C11.2531 5.51429 12.5141 6.2931 13.9812 7.50641C14.6571 8.06387 14.7065 8.12946 14.7065 8.41639C14.7065 8.71971 14.7065 8.71971 14.1543 8.91647C11.8712 9.70348 9.29972 11.2447 7.66779 12.8105C7.198 13.2614 7.05788 13.3516 6.8271 13.3516H6.54688V11.7366Z" fill="#FF9900"/>
<path d="M40.223 12.7292C38.6323 11.2208 36.9344 10.1714 34.4453 9.16308C33.2914 8.70399 33.2914 8.70399 33.2667 8.41706C33.242 8.14652 33.2832 8.09733 34.0085 7.49888C34.4288 7.14636 35.1624 6.6053 35.6404 6.28557C37.0251 5.351 37.7834 5.07227 38.896 5.07227C40.2889 5.07227 40.8247 5.71991 41.212 7.85959C41.3522 8.663 41.484 11.4749 41.4263 12.598L41.3934 13.3523H41.1296C40.9236 13.3441 40.7423 13.2211 40.223 12.7292Z" fill="#FF9900"/>
<path d="M21.695 42.2003C14.1206 41.8888 7.85664 40.2245 4.0076 37.4864C3.11746 36.8552 1.78225 35.5271 1.23003 34.7237C0.735507 34.0104 0.0761427 32.6742 0.00196427 32.2643C-0.0722142 31.7642 1.97181 24.2958 3.20812 20.5657L3.54605 19.5409L3.44714 18.3522C2.94438 12.507 2.90317 8.19487 3.32351 5.21079C3.851 1.46429 5.18621 -0.150717 7.61762 0.0132438C9.99957 0.177204 13.7827 2.64481 17.7224 6.60445L18.5219 7.41606L19.4944 7.27669C22.5357 6.834 26.36 6.86679 29.0717 7.35048L29.4426 7.41606L30.8025 6.12897C33.8273 3.27606 35.7725 1.80041 37.8495 0.800254C39.8852 -0.183509 41.443 -0.257291 42.6958 0.562511C43.8991 1.35772 44.6244 3.43182 44.9046 6.90778C45.0942 9.27701 44.9294 14.991 44.5667 18.5818L44.4761 19.418L44.8882 20.7133C45.7948 23.5662 46.7179 26.7634 47.6987 30.5263C48.1108 32.0921 48.1108 32.3217 47.6328 33.3054C45.0695 38.6177 37.5692 41.7166 26.0633 42.2085C24.0028 42.2987 23.9863 42.2987 21.695 42.2003ZM28.7008 40.2901C31.5855 40.0278 33.4812 39.7245 35.7313 39.167C40.2067 38.0685 43.4376 36.2895 45.1684 33.9695C45.7124 33.2398 46.2151 32.3053 46.2151 32.0183C46.2151 31.5592 44.237 24.4761 43.215 21.2953C42.4073 18.7703 41.9787 17.6144 41.5254 16.729C40.2726 14.327 38.2533 12.4988 35.2367 11.0642C32.8218 9.91646 30.4069 9.26061 27.1595 8.87531C25.7254 8.70315 22.6429 8.68675 21.2005 8.83432C13.5931 9.62133 8.1039 12.794 6.13405 17.5324C5.29336 19.5409 3.49659 25.4353 2.20259 30.4279L1.78225 32.0593L2.07896 32.6742C2.99383 34.6007 4.84829 36.2567 7.51871 37.5356C10.799 39.1014 15.7608 40.1344 21.4478 40.4377C22.7006 40.5033 27.3738 40.4049 28.7008 40.2901ZM7.44454 12.5644C9.07646 10.9986 11.648 9.45737 13.931 8.67036C14.236 8.56378 14.4832 8.44901 14.4832 8.41622C14.4832 8.33424 13.1645 7.2439 12.4722 6.75202C11.0216 5.72727 9.91715 5.27637 9.00228 5.33376C7.74125 5.41574 7.15606 6.54707 6.9088 9.37539C6.82638 10.3018 6.78517 13.1055 6.85111 13.1055C6.86759 13.1055 7.13134 12.8595 7.44454 12.5644ZM41.1792 10.3182C41.0968 8.21127 40.8001 6.73562 40.2973 6.0142C39.7369 5.20259 38.6572 5.10422 37.2313 5.74366C36.2835 6.16996 33.4152 8.28505 33.5801 8.43261C33.613 8.46541 34.0911 8.67036 34.6351 8.88351C37.0335 9.82628 38.888 10.9658 40.4952 12.4742L41.1463 13.0891L41.1875 12.4169C41.2122 12.0561 41.204 11.1052 41.1792 10.3182Z" fill="#111111"/>
<path d="M21.7371 31.9687C21.1107 31.7637 20.5585 31.2719 20.4596 30.821C20.3854 30.4767 20.6079 30.034 20.9541 29.8782C21.3168 29.706 21.3662 29.706 21.9679 29.993C22.8168 30.3865 23.0558 30.2963 23.2207 29.5257L23.3113 29.1076L22.9322 28.7551C21.9761 27.8533 22.5119 26.6154 23.9789 26.3694C24.9762 26.1973 25.9653 26.7056 26.1796 27.5008C26.3114 27.9763 26.1796 28.3534 25.7262 28.7633C25.3636 29.0994 25.3471 29.124 25.4048 29.4601C25.4625 29.8946 25.718 30.2389 25.9818 30.2389C26.0807 30.2389 26.4103 30.1241 26.7153 29.9848C27.1933 29.7634 27.284 29.747 27.5313 29.8208C28.0258 29.9848 28.2071 30.2799 28.1741 30.8865C28.1577 31.1817 27.523 31.7473 27.012 31.9195C26.3774 32.1326 25.3801 32.0671 24.7867 31.7801L24.3333 31.5588L23.8883 31.7801C23.5174 31.9605 23.3113 32.0015 22.6932 32.0179C22.2811 32.0261 21.8525 32.0097 21.7371 31.9687Z" fill="#111111"/>
<path d="M12.6959 29.8203C12.4075 29.7055 12.152 29.5252 11.8965 29.2464C11.2866 28.5742 11.1217 27.7626 11.4267 26.9674C11.6574 26.3607 11.9706 26.0082 12.5311 25.7295C14.3361 24.8359 16.3142 26.5329 15.6796 28.443C15.2757 29.6563 13.9075 30.2876 12.6959 29.8203Z" fill="#111111"/>
<path d="M34.396 29.8291C33.918 29.6405 33.4152 29.1896 33.1762 28.7224C33.0691 28.5256 32.9866 28.1731 32.9619 27.837C32.9289 27.3369 32.9454 27.2385 33.1927 26.7466C33.6048 25.9186 34.2724 25.5005 35.212 25.4923C36.712 25.4759 37.7835 26.927 37.3632 28.3944C37.2478 28.7633 37.1241 28.9601 36.7862 29.2962C36.1104 29.9685 35.2532 30.157 34.396 29.8291Z" fill="#111111"/>
<path d="M21.695 42.2003C14.1206 41.8888 7.85664 40.2246 4.0076 37.4864C3.11746 36.8552 1.78225 35.5271 1.23003 34.7237C0.735507 34.0105 0.0761427 32.6742 0.00196427 32.2643C-0.0722142 31.7642 1.97181 24.2958 3.20812 20.5657L3.54605 19.5409L3.44714 18.3522C2.94438 12.507 2.90317 8.19487 3.32351 5.21079C3.851 1.46429 5.18621 -0.150717 7.61762 0.0132438C9.99957 0.177204 13.7827 2.64481 17.7224 6.60446L18.5219 7.41606L19.4944 7.2767C22.5357 6.834 26.36 6.8668 29.0717 7.35048L29.4426 7.41606L30.8025 6.12897C33.8273 3.27606 35.7725 1.80041 37.8495 0.800255C39.8852 -0.183509 41.443 -0.257291 42.6958 0.562512C43.8991 1.35772 44.6244 3.43182 44.9046 6.90778C45.0942 9.27701 44.9294 14.991 44.5667 18.5818L44.4761 19.418L44.8882 20.7133C45.7948 23.5662 46.7179 26.7634 47.6987 30.5263C48.1108 32.0921 48.1108 32.3217 47.6328 33.3054C45.0695 38.6178 37.5692 41.7166 26.0633 42.2085C24.0028 42.2987 23.9863 42.2987 21.695 42.2003ZM28.7008 40.2901C31.5855 40.0278 33.4812 39.7245 35.7313 39.167C40.2067 38.0685 43.4376 36.2895 45.1684 33.9695C45.7124 33.2398 46.2151 32.3053 46.2151 32.0183C46.2151 31.5593 44.237 24.4762 43.215 21.2953C42.4073 18.7703 41.9787 17.6144 41.5254 16.729C40.2726 14.327 38.2533 12.4988 35.2367 11.0642C32.8218 9.91646 30.4069 9.26062 27.1595 8.87531C25.7254 8.70315 22.6429 8.68676 21.2005 8.83432C13.5931 9.62133 8.1039 12.794 6.13405 17.5324C5.29336 19.5409 3.49659 25.4353 2.20259 30.4279L1.78225 32.0593L2.07896 32.6742C2.99383 34.6007 4.84829 36.2567 7.51871 37.5356C10.799 39.1014 15.7608 40.1344 21.4478 40.4377C22.7006 40.5033 27.3738 40.4049 28.7008 40.2901ZM7.44454 12.5644C9.07646 10.9986 11.648 9.45737 13.931 8.67036C14.236 8.56379 14.4832 8.44901 14.4832 8.41622C14.4832 8.33424 13.1645 7.2439 12.4722 6.75202C11.0216 5.72727 9.91715 5.27638 9.00228 5.33376C7.74125 5.41574 7.15606 6.54707 6.9088 9.37539C6.82638 10.3018 6.78517 13.1055 6.85111 13.1055C6.86759 13.1055 7.13134 12.8596 7.44454 12.5644ZM41.1792 10.3182C41.0968 8.21127 40.8001 6.73563 40.2973 6.0142C39.7369 5.2026 38.6572 5.10422 37.2313 5.74366C36.2835 6.16996 33.4152 8.28505 33.5801 8.43262C33.613 8.46541 34.0911 8.67036 34.6351 8.88351C37.0335 9.82628 38.888 10.9658 40.4952 12.4742L41.1463 13.0891L41.1875 12.4169C41.2122 12.0561 41.204 11.1052 41.1792 10.3182Z" fill="#111111"/>
<path d="M21.7371 31.9687C21.1107 31.7638 20.5585 31.2719 20.4596 30.821C20.3854 30.4767 20.6079 30.034 20.9541 29.8782C21.3168 29.7061 21.3662 29.7061 21.9679 29.993C22.8168 30.3865 23.0558 30.2963 23.2207 29.5257L23.3113 29.1076L22.9322 28.7551C21.9761 27.8533 22.5119 26.6154 23.9789 26.3695C24.9762 26.1973 25.9653 26.7056 26.1796 27.5008C26.3114 27.9763 26.1796 28.3534 25.7262 28.7633C25.3636 29.0994 25.3471 29.124 25.4048 29.4601C25.4625 29.8946 25.718 30.2389 25.9818 30.2389C26.0807 30.2389 26.4103 30.1242 26.7153 29.9848C27.1933 29.7634 27.284 29.747 27.5313 29.8208C28.0258 29.9848 28.2071 30.2799 28.1741 30.8866C28.1577 31.1817 27.523 31.7474 27.012 31.9195C26.3774 32.1327 25.3801 32.0671 24.7867 31.7802L24.3333 31.5588L23.8883 31.7802C23.5174 31.9605 23.3113 32.0015 22.6932 32.0179C22.2811 32.0261 21.8525 32.0097 21.7371 31.9687Z" fill="#111111"/>
<path d="M12.6959 29.8222C12.4075 29.7075 12.152 29.5271 11.8965 29.2484C11.2866 28.5761 11.1217 27.7645 11.4267 26.9693C11.6574 26.3627 11.9706 26.0102 12.5311 25.7314C14.3361 24.8378 16.3142 26.5348 15.6796 28.445C15.2757 29.6583 13.9075 30.2895 12.6959 29.8222Z" fill="#111111"/>
<path d="M34.396 29.8291C33.918 29.6405 33.4152 29.1896 33.1762 28.7223C33.0691 28.5256 32.9866 28.1731 32.9619 27.837C32.9289 27.3369 32.9454 27.2385 33.1927 26.7466C33.6048 25.9186 34.2724 25.5005 35.212 25.4923C36.712 25.4759 37.7835 26.927 37.3632 28.3944C37.2478 28.7633 37.1241 28.9601 36.7862 29.2962C36.1104 29.9684 35.2532 30.157 34.396 29.8291Z" fill="#111111"/>
<path d="M21.7371 31.9687C21.1107 31.7638 20.5585 31.2719 20.4596 30.821C20.3854 30.4767 20.6079 30.034 20.9541 29.8782C21.3167 29.7061 21.3662 29.7061 21.9679 29.993C22.8168 30.3865 23.0558 30.2963 23.2207 29.5257L23.3113 29.1076L22.9322 28.7551C21.9761 27.8533 22.5118 26.6154 23.9789 26.3695C24.9762 26.1973 25.9653 26.7056 26.1795 27.5008C26.3114 27.9763 26.1795 28.3534 25.7262 28.7633C25.3636 29.0994 25.3471 29.124 25.4048 29.4601C25.4625 29.8946 25.718 30.2389 25.9817 30.2389C26.0806 30.2389 26.4103 30.1242 26.7153 29.9848C27.1933 29.7634 27.284 29.747 27.5312 29.8208C28.0258 29.9848 28.2071 30.2799 28.1741 30.8866C28.1576 31.1817 27.523 31.7474 27.012 31.9195C26.3774 32.1327 25.3801 32.0671 24.7866 31.7802L24.3333 31.5588L23.8883 31.7802C23.5174 31.9605 23.3113 32.0015 22.6932 32.0179C22.2811 32.0261 21.8525 32.0097 21.7371 31.9687Z" fill="#111111"/>
<path d="M12.6959 29.8203C12.4075 29.7055 12.152 29.5252 11.8965 29.2464C11.2866 28.5742 11.1217 27.7626 11.4267 26.9674C11.6574 26.3607 11.9706 26.0082 12.5311 25.7295C14.3361 24.8359 16.3142 26.5329 15.6796 28.443C15.2757 29.6563 13.9075 30.2876 12.6959 29.8203Z" fill="#111111"/>
<path d="M34.398 29.8291C33.9199 29.6405 33.4172 29.1896 33.1782 28.7223C33.071 28.5256 32.9886 28.1731 32.9639 27.837C32.9309 27.3369 32.9474 27.2385 33.1946 26.7466C33.6067 25.9186 34.2744 25.5005 35.2139 25.4923C36.714 25.4759 37.7855 26.927 37.3651 28.3944C37.2497 28.7633 37.1261 28.9601 36.7882 29.2962C36.1123 29.9684 35.2552 30.157 34.398 29.8291Z" fill="#111111"/>
</svg>
