<svg width="48" height="49" viewBox="0 0 48 49" fill="none" xmlns="http://www.w3.org/2000/svg">
<g clip-path="url(#clip0_1_4451)">
<path d="M42.0216 4.21683C37.3924 1.53128 25.6401 15.9874 25.6401 15.9874L43.0124 26.8146C43.0038 26.8146 45.9761 6.51145 42.0216 4.21683Z" fill="#111111"/>
<path d="M43.0037 27.6899C42.8415 27.6899 42.6792 27.6474 42.534 27.5539L25.1703 16.7267C24.9568 16.5907 24.8116 16.3783 24.7689 16.1318C24.7262 15.8854 24.7945 15.6304 24.9482 15.4349C25.9902 14.1602 35.2144 3.01001 40.6977 3.01001C41.3553 3.01001 41.9447 3.16298 42.4657 3.46043C43.7212 4.19131 45.344 6.32446 44.8827 16.4123C44.6351 21.7579 43.892 26.8825 43.8835 26.9335C43.8408 27.2225 43.6529 27.4774 43.3795 27.6049C43.26 27.6644 43.1319 27.6899 43.0037 27.6899ZM26.9553 15.7749L42.3119 25.3443C42.5425 23.4916 42.944 19.9562 43.1148 16.3188C43.5504 6.86837 42.0472 5.24514 41.5774 4.97318C41.3297 4.82871 41.0393 4.76072 40.6977 4.76072C37.0336 4.76072 30.0557 12.112 26.9553 15.7749Z" fill="#111111"/>
<path d="M39.7582 8.5171C36.5809 6.67291 28.5098 16.5993 28.5098 16.5993L40.4329 24.0355C40.4414 24.0355 42.4742 10.0893 39.7582 8.5171Z" fill="#FF9900"/>
<path d="M5.98724 4.21683C10.6164 1.53128 22.3687 15.9874 22.3687 15.9874L4.99649 26.8146C4.99649 26.8146 2.03279 6.51145 5.98724 4.21683Z" fill="#111111"/>
<path d="M4.99644 27.6899C4.86833 27.6899 4.74021 27.6644 4.62918 27.6134C4.35587 27.4859 4.16797 27.2395 4.12527 26.942C4.11673 26.891 3.37367 21.7664 3.12598 16.4208C2.66477 6.33296 4.279 4.19131 5.54306 3.46043C6.05552 3.16298 6.65338 3.01001 7.31103 3.01001C12.7943 3.01001 22.0185 14.1602 23.052 15.4349C23.2142 15.6304 23.274 15.8854 23.2399 16.1318C23.1972 16.3783 23.052 16.5992 22.8384 16.7267L5.46619 27.5539C5.321 27.6474 5.15872 27.6899 4.99644 27.6899ZM7.31103 4.76072C6.9694 4.76072 6.679 4.82871 6.43132 4.97318C5.96157 5.24514 4.44982 6.87687 4.89395 16.3358C5.06477 19.9647 5.45765 23.5001 5.6968 25.3443L21.0534 15.7749C17.9445 12.112 10.9665 4.76072 7.31103 4.76072Z" fill="#111111"/>
<path d="M8.24196 8.5171C11.4192 6.67291 19.4904 16.5993 19.4904 16.5993L7.55868 24.0355C7.55868 24.0355 5.52594 10.0893 8.24196 8.5171Z" fill="#FF9900"/>
<path d="M42.8585 20.5681C40.2792 13.5227 31.3966 10.7862 24.0002 10.7862C16.6037 10.7862 7.72117 13.5227 5.14181 20.5681C2.92116 26.636 0.879883 34.9222 0.879883 34.9222C3.42508 42.1375 15.1432 44.1346 24.0002 44.1346C32.8657 44.1346 44.5753 42.1375 47.1205 34.9222C47.1205 34.9222 45.0877 26.636 42.8585 20.5681Z" fill="#FF9900"/>
<path d="M36.1452 35.1687C27.7239 35.1687 33.5659 29.1942 24.3075 29.1942C15.0491 29.1942 20.8911 35.1687 12.4698 35.1687C4.64629 35.1687 -6.72168 34.9052 -6.72168 34.9052L11.1886 47.0922H24.3075H37.4264L55.3452 34.8967C55.3367 34.8967 43.9687 35.1687 36.1452 35.1687Z" fill="white"/>
<path d="M37.4178 30.5709C37.4178 29.3301 36.4014 28.3188 35.1545 28.3188C33.9075 28.3188 32.8911 29.3301 32.8911 30.5709C32.8911 31.8117 33.9075 32.823 35.1545 32.823C36.41 32.823 37.4178 31.8202 37.4178 30.5709Z" fill="#111111"/>
<path d="M11.2739 30.5709C11.2739 29.3301 12.2903 28.3188 13.5373 28.3188C14.7842 28.3188 15.8006 29.3301 15.8006 30.5709C15.8006 31.8117 14.7928 32.823 13.5373 32.823C12.2903 32.823 11.2739 31.8202 11.2739 30.5709Z" fill="#111111"/>
<path d="M26.6906 32.806C25.5461 33.5369 25.3412 32.6701 25.3412 31.7097C25.3412 30.8684 25.4095 29.8655 24.3077 29.8655C23.2059 29.8655 23.2743 30.8684 23.2743 31.7097C23.2743 32.6701 23.0607 33.5369 21.9248 32.806C20.7888 32.0837 19.67 33.6219 21.1219 34.5143C22.386 35.2961 23.9234 34.7097 24.3077 34.3273C24.692 34.7097 26.2294 35.2961 27.4935 34.5143C28.9369 33.6219 27.8266 32.0752 26.6906 32.806Z" fill="#111111"/>
<path d="M25.8191 29.7636C25.4604 29.3726 24.8711 29.1942 24.3159 29.1942C23.7522 29.1942 23.1629 29.3811 22.8127 29.7636C22.155 30.4859 22.1465 31.7012 24.2561 32.2536H24.3757C26.4853 31.7012 26.4767 30.4859 25.8191 29.7636Z" fill="#111111"/>
<path d="M24.0001 45.01C19.1916 45.01 3.26273 44.3047 0.0513366 35.2112C-0.00844987 35.0497 -0.0169908 34.8797 0.0257138 34.7098C0.0427957 34.6248 2.10116 26.3047 4.31326 20.2622C7.11468 12.6219 16.672 9.91089 24.0001 9.91089C31.3282 9.91089 40.8855 12.6219 43.6869 20.2707C45.899 26.3132 47.9574 34.6333 47.9745 34.7183C48.0172 34.8882 48.0086 35.0582 47.9489 35.2197C44.7375 44.3047 28.8086 45.01 24.0001 45.01ZM1.80223 34.8712C4.8428 42.6474 19.5332 43.2593 24.0001 43.2593C28.467 43.2593 43.1659 42.6474 46.198 34.8712C45.8307 33.4265 43.9944 26.2197 42.03 20.8656C39.536 14.0667 30.756 11.6616 23.9916 11.6616C17.2271 11.6616 8.44707 14.0752 5.95312 20.8656C4.00579 26.2282 2.16095 33.4265 1.80223 34.8712Z" fill="#111111"/>
</g>
<defs>
<clipPath id="clip0_1_4451">
<rect width="48" height="42" fill="white" transform="translate(0 3.01001)"/>
</clipPath>
</defs>
</svg>
