<svg width="21" height="20" viewBox="0 0 21 20" fill="none" xmlns="http://www.w3.org/2000/svg">
<path fill-rule="evenodd" clip-rule="evenodd" d="M3.5 0C1.84315 0 0.5 1.34315 0.5 3V17C0.5 18.6569 1.84315 20 3.5 20H17.5C19.1569 20 20.5 18.6569 20.5 17V6.24264C20.5 5.44699 20.1839 4.68393 19.6213 4.12132L16.3787 0.87868C15.8161 0.316071 15.053 0 14.2574 0H3.5ZM4.5 14C4.5 12.8954 5.39543 12 6.5 12H14.5C15.6046 12 16.5 12.8954 16.5 14V17C16.5 17.5523 16.0523 18 15.5 18H5.5C4.94771 18 4.5 17.5523 4.5 17V14ZM13.5 7H7.5C6.39543 7 5.5 6.10457 5.5 5V3C5.5 2.44772 5.94772 2 6.5 2H14.0858C14.351 2 14.6054 2.10536 14.7929 2.29289L15.2071 2.70711C15.3946 2.89464 15.5 3.149 15.5 3.41421V5C15.5 6.10457 14.6046 7 13.5 7Z" fill="white"/>
</svg>
