<svg width="136" height="31" viewBox="0 0 136 31" fill="none" xmlns="http://www.w3.org/2000/svg">
<path d="M0 14.7438V29.4875H3.1385H6.27699L6.3352 23.7891L6.42009 18.0906L10.8174 23.7891L15.2122 29.4875H18.894C21.7779 29.4875 22.52 29.4032 22.3478 29.1189C22.149 28.8081 13.757 18.2304 12.9566 17.2666C12.6146 16.8979 13.1288 16.2184 16.5535 12.2765C18.7509 9.75373 20.5506 7.62614 20.5506 7.5418C20.5506 7.42856 18.9522 7.37073 16.9828 7.37073H13.4441L9.9321 11.5127L6.42252 15.6522L6.33763 7.82612L6.27942 6.07214e-05H3.1385H0V14.7438Z" fill="black"/>
<path d="M49.0928 14.7438V29.4875H52.2313H55.3722L55.4304 23.7891L55.5153 18.0906L59.9102 23.7891L64.305 29.4875H67.9868C70.8706 29.4875 71.6128 29.4032 71.4406 29.1189C71.2417 28.8081 62.8498 18.2304 62.0494 17.2666C61.7074 16.8979 62.2216 16.2184 65.6463 12.2765C67.8437 9.75373 69.6434 7.62614 69.6434 7.5418C69.6434 7.42856 68.045 7.37073 66.0756 7.37073H62.5369L59.0273 11.5103L55.5177 15.6498L55.4328 7.82372L55.3722 6.07214e-05H52.2337H49.0952V14.7438H49.0928Z" fill="black"/>
<path d="M30.8268 7.25963C27.5161 8.1391 24.7754 10.3775 23.2352 13.4689C20.2932 19.3674 22.8059 26.0875 28.998 28.9789C32.7089 30.7089 37.5331 30.3403 41.0427 28.0705C47.2081 24.1286 48.2074 15.6784 43.097 10.5462C39.9585 7.39939 35.1635 6.09584 30.8268 7.25963ZM36.6187 12.8738C37.1329 13.0714 37.9042 13.6111 38.3602 14.0641C41.8431 17.5241 40.1574 23.3648 35.3624 24.4129C31.797 25.2369 28.2292 22.3142 28.2292 18.6012C28.2292 14.9725 30.6279 12.5051 34.1957 12.4762C35.0204 12.4762 36.107 12.6473 36.6187 12.8738Z" fill="black"/>
<path d="M79.9204 7.25963C76.6097 8.1391 73.869 10.3775 72.3289 13.4689C69.3892 19.3674 71.8996 26.0875 78.0941 28.9789C81.805 30.7089 86.6291 30.3403 90.1387 28.0705C96.3041 24.1286 97.3034 15.6784 92.1931 10.5462C89.0521 7.39939 84.2571 6.09584 79.9204 7.25963ZM85.7123 12.8738C86.2265 13.0714 86.9978 13.6111 87.4538 14.0641C90.9367 17.5241 89.251 23.3648 84.456 24.4129C80.8906 25.2369 77.3228 22.3142 77.3228 18.6012C77.3228 14.9725 79.7215 12.5051 83.2893 12.4762C84.114 12.4762 85.2006 12.6473 85.7123 12.8738Z" fill="black"/>
<path d="M106.663 7.11727C95.7413 10.2593 98.63 20.8563 98.157 29.4895C99.6583 29.4895 102.678 29.4895 104.179 29.4895C104.647 22.914 101.875 12.9603 110.316 12.3338C110.357 10.9556 110.444 8.18227 110.488 6.80404C109.355 6.81127 107.691 6.87151 106.663 7.11727Z" fill="black"/>
<path d="M120.449 7.25963C117.138 8.1391 114.397 10.3775 112.857 13.4689C109.918 19.3674 112.428 26.0875 118.622 28.9789C122.333 30.7089 127.157 30.3403 130.667 28.0705C136.832 24.1286 137.832 15.6784 132.721 10.5462C129.583 7.39939 124.788 6.09584 120.449 7.25963ZM126.243 12.8738C126.757 13.0714 127.529 13.6111 127.985 14.0641C131.467 17.5241 129.782 23.3648 124.987 24.4129C121.419 25.2369 117.851 22.3142 117.851 18.6012C117.851 14.9725 120.25 12.5051 123.818 12.4762C124.645 12.4762 125.729 12.6473 126.243 12.8738Z" fill="black"/>
</svg>
