<svg width="136" height="30" viewBox="0 0 136 30" fill="none" xmlns="http://www.w3.org/2000/svg">
<path d="M31.4967 29.7507C29.5211 29.3498 26.9155 27.9468 25.3693 26.4293C20.1867 21.2753 21.0171 13.0577 27.1159 8.84867C33.1574 4.66826 41.9191 7.01616 45.0115 13.6304C49.0487 22.2489 41.1747 31.6405 31.4967 29.7507ZM36.5075 24.0814C40.7165 22.163 41.4896 16.6082 37.9678 13.5158C34.2169 10.2517 28.2612 12.8286 27.8317 17.9253C27.6027 20.5595 29.3206 23.3369 31.7831 24.3104C32.9284 24.7686 35.2763 24.654 36.5075 24.0814Z" fill="white"/>
<path d="M80.7448 29.7507C78.7691 29.3498 76.1635 27.9468 74.6173 26.4293C69.4348 21.2753 70.2651 13.0577 76.3639 8.84867C82.4055 4.66826 91.1672 7.01616 94.2595 13.6304C98.2968 22.2489 90.4227 31.6405 80.7448 29.7507ZM85.7555 24.0814C89.9646 22.163 90.7377 16.6082 87.2158 13.5158C83.4649 10.2517 77.5093 12.8286 77.0798 17.9253C76.8507 20.5595 78.5687 23.3369 81.0311 24.3104C82.1764 24.7686 84.5243 24.654 85.7555 24.0814Z" fill="white"/>
<path d="M121.403 29.7507C119.427 29.3498 116.822 27.9468 115.276 26.4293C110.093 21.2753 110.923 13.0577 117.022 8.84867C123.064 4.66826 131.825 7.01616 134.918 13.6304C138.955 22.2489 131.081 31.6405 121.403 29.7507ZM126.414 24.0814C130.623 22.163 131.396 16.6082 127.874 13.5158C124.123 10.2517 118.167 12.8286 117.738 17.9253C117.509 20.5595 119.227 23.3369 121.689 24.3104C122.835 24.7686 125.183 24.654 126.414 24.0814Z" fill="white"/>
<path d="M0 14.7459V0H2.86329H5.72658V7.87405C5.72658 12.1976 5.84111 15.7481 5.95564 15.7481C6.07017 15.7481 7.61635 14.0301 9.39159 11.9113C11.1382 9.82109 12.7703 7.95995 12.9993 7.75952C13.257 7.53045 14.4882 7.44456 16.693 7.50182L20.0144 7.58772L16.2921 11.8827C14.2306 14.2592 12.4839 16.3494 12.398 16.5212C12.3121 16.7216 14.4596 19.6422 17.1511 23.0209C19.8426 26.3995 22.0473 29.2342 22.0473 29.3201C22.0473 29.406 20.5012 29.4919 18.6114 29.4919H15.2041L10.6801 23.6222C8.18901 20.3866 6.07017 17.7524 5.95564 17.7524C5.81248 17.7524 5.72658 20.3866 5.72658 23.6222V29.4919H2.86329H0V14.7459Z" fill="white"/>
<path d="M49.248 14.7459V0H52.1113H54.9746V7.87405C54.9746 12.1976 55.0892 15.7481 55.2037 15.7481C55.3182 15.7481 56.8644 14.0301 58.6396 11.9113C60.3862 9.82109 62.0183 7.95995 62.2474 7.75952C62.5051 7.53045 63.7363 7.44456 65.941 7.50182L69.2624 7.58772L65.5402 11.8827C63.4786 14.2592 61.732 16.3494 61.6461 16.5212C61.5602 16.7216 63.7077 19.6422 66.3992 23.0209C69.0907 26.3995 71.2954 29.2342 71.2954 29.3201C71.2954 29.406 69.7492 29.4919 67.8594 29.4919H64.4521L59.9281 23.6222C57.4371 20.3866 55.3182 17.7524 55.2037 17.7524C55.0605 17.7524 54.9746 20.3866 54.9746 23.6222V29.4919H52.1113H49.248V14.7459Z" fill="white"/>
<path d="M98.2688 22.5631C98.3547 16.1207 98.412 15.4908 99.0419 13.9446C100.674 9.82146 104.053 7.27313 108.605 6.75773L110.237 6.58594V9.30606C110.237 11.7112 110.18 12.0262 109.751 12.0262C108.949 12.0262 106.429 13.3147 105.742 14.0591C104.368 15.548 104.224 16.4643 104.224 23.193V29.4923H101.189H98.1543L98.2688 22.5631Z" fill="white"/>
</svg>
