<svg width="25" height="24" viewBox="0 0 25 24" fill="none" xmlns="http://www.w3.org/2000/svg">
<path fill-rule="evenodd" clip-rule="evenodd" d="M12.5 20C16.9183 20 20.5 16.4183 20.5 12C20.5 7.58172 16.9183 4 12.5 4C8.08172 4 4.5 7.58172 4.5 12C4.5 16.4183 8.08172 20 12.5 20ZM12.5 22C18.0228 22 22.5 17.5228 22.5 12C22.5 6.47715 18.0228 2 12.5 2C6.97715 2 2.5 6.47715 2.5 12C2.5 17.5228 6.97715 22 12.5 22Z" fill="#C07200"/>
<circle cx="12.5" cy="18" r="1" fill="#C07200"/>
<path fill-rule="evenodd" clip-rule="evenodd" d="M12.5 8C11.6307 8 10.8886 8.5551 10.6135 9.33325C10.4295 9.85396 9.85815 10.1269 9.33744 9.94284C8.81672 9.75879 8.5438 9.18747 8.72784 8.66675C9.27648 7.11451 10.7568 6 12.5 6C14.7091 6 16.5 7.79086 16.5 10C16.5 11.8638 15.2252 13.4299 13.5 13.874V15C13.5 15.5523 13.0523 16 12.5 16C11.9477 16 11.5 15.5523 11.5 15V13C11.5 12.4477 11.9477 12 12.5 12C13.6045 12 14.5 11.1046 14.5 10C14.5 8.89543 13.6045 8 12.5 8Z" fill="#C07200"/>
</svg>
