<svg width="19" height="20" viewBox="0 0 19 20" fill="none" xmlns="http://www.w3.org/2000/svg">
<path fill-rule="evenodd" clip-rule="evenodd" d="M16 9.01001C16 12.876 12.866 16.01 9 16.01C5.13401 16.01 2 12.876 2 9.01001C2 5.14402 5.13401 2.01001 9 2.01001C12.866 2.01001 16 5.14402 16 9.01001ZM16.0319 14.6277C17.2635 13.088 18 11.135 18 9.01001C18 4.03945 13.9706 0.0100098 9 0.0100098C4.02944 0.0100098 0 4.03945 0 9.01001C0 13.9806 4.02944 18.01 9 18.01C11.125 18.01 13.078 17.2735 14.6177 16.0419L17.2929 18.7171C17.6834 19.1076 18.3166 19.1076 18.7071 18.7171C19.0976 18.3266 19.0976 17.6934 18.7071 17.3029L16.0319 14.6277Z" fill="#1A1D1F"/>
</svg>
