<svg width="128" height="114" viewBox="0 0 128 114" fill="none" xmlns="http://www.w3.org/2000/svg">
<path d="M63.9414 110.303C96.6548 110.303 123.174 99.8821 123.174 87.0274C123.174 74.1726 96.6548 63.7518 63.9414 63.7518C31.228 63.7518 4.7085 74.1726 4.7085 87.0274C4.7085 99.8821 31.228 110.303 63.9414 110.303Z" fill="white"/>
<path d="M122.888 86.8517C123.02 86.522 122.053 86.5 109.327 86.6319C92.2275 86.7857 90.0956 86.6319 86.8207 84.9835C84.7327 83.9285 83.3041 82.2801 81.5239 78.8733C79.0622 74.1479 77.26 72.5874 73.0181 71.5105C70.996 71.0049 66.0947 70.3895 65.853 70.6313C65.787 70.6972 65.9189 70.7412 66.1607 70.7412C66.3805 70.7632 66.864 70.8731 67.1937 71.0269C67.7212 71.2467 67.3475 71.2907 64.82 71.2907C62.2924 71.2907 61.9188 71.2467 62.4463 71.0269C62.7759 70.8731 63.3034 70.7632 63.5892 70.7412C63.8749 70.7412 64.0727 70.6753 64.0067 70.6093C63.8089 70.4335 58.8857 70.939 57.1494 71.3126C56.2922 71.5105 54.7976 72.0379 53.8086 72.4995C51.303 73.7083 49.8964 75.2688 47.8963 79.0712C45.039 84.4999 42.7313 85.9945 36.1376 86.5659C33.7419 86.7637 12.7302 86.6978 7.25749 86.456C5.1695 86.3681 4.90576 86.3901 5.01565 86.6978C5.10357 86.9396 5.01565 87.0275 4.64201 86.9615C3.80682 86.8517 4.02661 85.1153 5.65304 78.9832C9.76307 63.4662 14.2467 49.136 16.3347 44.7183C18.159 40.916 22.269 36.0806 26.0274 33.3333C33.5881 27.8166 43.7863 24.278 55.8087 23.0252C59.2154 22.6736 68.93 22.6736 72.1829 23.0252C85.6339 24.4978 96.2716 28.5199 103.942 34.9597C108.36 38.6961 111.217 42.96 113.415 49.136C117.13 59.5979 123.833 83.2911 123.833 85.9505C123.833 87.1594 123.811 87.2253 123.284 87.2253C122.866 87.2253 122.778 87.1374 122.888 86.8517ZM37.5443 79.3129C39.9619 78.3898 41.7642 75.5326 41.2147 73.4446C40.7752 71.8181 39.6982 70.4994 38.1597 69.7082C36.4234 68.8071 35.6981 68.8071 33.9837 69.6642C32.4452 70.4115 31.5221 71.5324 30.9506 73.2248C30.599 74.2578 30.599 74.4117 30.9506 75.4886C31.4561 77.0711 32.9507 78.7195 34.4453 79.2909C35.8959 79.8404 36.0937 79.8404 37.5443 79.3129ZM95.0408 79.4008C97.5464 78.6536 99.5465 75.6644 98.975 73.5105C98.4695 71.5324 96.7332 69.7521 94.7551 69.1587C92.821 68.5873 90.3373 69.9719 89.1505 72.3017C88.5351 73.4666 88.4252 73.8622 88.5351 74.6534C88.7988 76.6095 90.3593 78.5437 92.3154 79.3129C93.6342 79.8404 93.6122 79.8184 95.0408 79.4008Z" fill="#FF9900"/>
<path d="M17.4556 31.4652C17.4556 21.1352 18.5545 16.1899 21.2799 14.1679C22.203 13.4646 25.4998 13.3986 27.5219 14.014C30.0055 14.7833 33.3682 16.8713 37.2804 20.1242C39.0827 21.6187 39.2146 21.7945 39.2146 22.5638C39.2146 23.377 39.2146 23.377 37.742 23.9045C31.6539 26.0145 24.7965 30.1465 20.4447 34.3444C19.1919 35.5533 18.8183 35.795 18.2028 35.795H17.4556V31.4652Z" fill="#FF9900"/>
<path d="M107.261 34.1244C103.019 30.0803 98.4911 27.267 91.8535 24.5636C88.7765 23.3328 88.7765 23.3328 88.7106 22.5635C88.6446 21.8382 88.7545 21.7064 90.6887 20.1019C91.8096 19.1568 93.7657 17.7062 95.0405 16.8491C98.7329 14.3435 100.755 13.5962 103.722 13.5962C107.436 13.5962 108.865 15.3325 109.898 21.069C110.272 23.2229 110.623 30.7616 110.47 33.7727L110.382 35.7948H109.678C109.129 35.7728 108.645 35.4431 107.261 34.1244Z" fill="#FF9900"/>
<path d="M57.8534 113.138C37.6549 112.303 20.951 107.842 10.6869 100.501C8.31322 98.8082 4.75266 95.2477 3.28008 93.0937C1.96135 91.1816 0.203047 87.599 0.00523804 86.5001C-0.192571 85.1594 5.25817 65.1367 8.55499 55.1364L9.45612 52.389L9.19238 49.2021C7.85167 33.5312 7.74178 21.9703 8.86269 13.9701C10.2693 3.92575 13.8299 -0.404069 20.3136 0.0355065C26.6655 0.475082 36.7538 7.0907 47.2597 17.7065L49.3916 19.8824L51.9851 19.5087C60.0953 18.3219 70.2934 18.4098 77.5245 19.7065L78.5135 19.8824L82.14 16.4317C90.2062 8.78307 95.3932 4.82688 100.932 2.14547C106.361 -0.491984 110.515 -0.689794 113.855 1.50809C117.064 3.64003 118.998 9.20067 119.746 18.5197C120.251 24.8715 119.812 40.1908 118.845 49.8175L118.603 52.0593L119.702 55.532C122.119 63.1806 124.581 71.7523 127.197 81.8406C128.295 86.0385 128.295 86.6539 127.021 89.2914C120.185 103.534 100.185 111.842 69.5022 113.16C64.0075 113.402 63.9636 113.402 57.8534 113.138ZM76.5354 108.017C84.228 107.314 89.2831 106.501 95.2833 105.006C107.218 102.061 115.834 97.2917 120.449 91.0717C121.9 89.1156 123.24 86.61 123.24 85.8407C123.24 84.6099 117.965 65.6202 115.24 57.0925C113.086 50.323 111.943 47.224 110.734 44.8503C107.394 38.4105 102.009 33.5092 93.9646 29.6629C87.5248 26.5859 81.085 24.8276 72.4254 23.7946C68.6011 23.333 60.381 23.2891 56.5347 23.6847C36.2483 25.7947 21.6104 34.3005 16.3575 47.0042C14.1156 52.389 9.32425 68.1918 5.87358 81.5768L4.75266 85.9506L5.5439 87.599C7.98354 92.7641 12.9288 97.2038 20.0499 100.632C28.7975 104.83 42.0287 107.6 57.1941 108.413C60.5349 108.589 72.9968 108.325 76.5354 108.017ZM19.8521 33.685C24.2039 29.4871 31.0613 25.3551 37.1494 23.2451C37.9626 22.9594 38.622 22.6517 38.622 22.5638C38.622 22.344 35.1054 19.4208 33.2592 18.1021C29.3909 15.3547 26.4457 14.1459 24.0061 14.2997C20.6433 14.5195 19.0828 17.5526 18.4235 25.1353C18.2037 27.6189 18.0938 35.1357 18.2696 35.1357C18.3136 35.1357 19.0169 34.4763 19.8521 33.685ZM109.811 27.6629C109.592 22.0143 108.8 18.0581 107.46 16.124C105.965 13.9481 103.086 13.6843 99.2835 15.3987C96.7559 16.5416 89.1073 22.2121 89.5469 22.6077C89.6348 22.6956 90.9096 23.2451 92.3602 23.8166C98.756 26.3441 103.701 29.3992 107.987 33.4433L109.723 35.0917L109.833 33.2894C109.899 32.3224 109.877 29.7728 109.811 27.6629Z" fill="#111111"/>
<path d="M57.9648 85.7089C56.2944 85.1594 54.8218 83.8407 54.5581 82.6319C54.3603 81.7088 54.9537 80.5219 55.8768 80.1043C56.8439 79.6428 56.9757 79.6428 58.5802 80.412C60.844 81.467 61.4814 81.2252 61.921 79.1592L62.1627 78.0383L61.1517 77.0932C58.6022 74.6756 60.0308 71.3568 63.943 70.6974C66.6024 70.2358 69.2399 71.5985 69.8113 73.7305C70.163 75.0052 69.8113 76.0163 68.6025 77.1152C67.6354 78.0163 67.5915 78.0823 67.7453 78.9834C67.8992 80.1483 68.5805 81.0714 69.2839 81.0714C69.5476 81.0714 70.4268 80.7637 71.24 80.39C72.5147 79.7966 72.7565 79.7527 73.4159 79.9505C74.7346 80.39 75.2181 81.1813 75.1302 82.8077C75.0863 83.5989 73.3939 85.1155 72.0312 85.577C70.3388 86.1485 67.6794 85.9727 66.0969 85.2034L64.8881 84.61L63.7012 85.2034C62.7122 85.6869 62.1627 85.7968 60.5143 85.8408C59.4154 85.8628 58.2725 85.8188 57.9648 85.7089Z" fill="#111111"/>
<path d="M33.8537 79.9502C33.0845 79.6425 32.4031 79.159 31.7218 78.4117C30.0954 76.6094 29.6558 74.4335 30.469 72.3016C31.0844 70.6752 31.9196 69.7301 33.4142 68.9828C38.2275 66.5871 43.5024 71.1367 41.8101 76.2578C40.7331 79.5106 37.0846 81.203 33.8537 79.9502Z" fill="#111111"/>
<path d="M91.7234 79.9724C90.4486 79.4669 89.1079 78.258 88.4705 77.0052C88.1848 76.4777 87.965 75.5327 87.8991 74.6315C87.8112 73.2908 87.8551 73.0271 88.5145 71.7083C89.6134 69.4885 91.3937 68.3676 93.8993 68.3456C97.8994 68.3016 100.757 72.1919 99.6358 76.1261C99.3281 77.1151 98.9984 77.6426 98.0973 78.5437C96.295 80.346 94.0092 80.8515 91.7234 79.9724Z" fill="#111111"/>
</svg>
