<svg width="24" height="25" viewBox="0 0 24 25" fill="none" xmlns="http://www.w3.org/2000/svg">
<path fill-rule="evenodd" clip-rule="evenodd" d="M12 4.01001C7.58172 4.01001 4 7.59173 4 12.01H6C7.65685 12.01 9 13.3532 9 15.01V18.01C9 19.6669 7.65685 21.01 6 21.01H5C3.34315 21.01 2 19.6669 2 18.01V12.01C2 6.48716 6.47715 2.01001 12 2.01001C17.5228 2.01001 22 6.48716 22 12.01V18.01C22 19.6669 20.6569 21.01 19 21.01H18C16.3431 21.01 15 19.6669 15 18.01V15.01C15 13.3532 16.3431 12.01 18 12.01H20C20 7.59173 16.4183 4.01001 12 4.01001ZM20 14.01H18C17.4477 14.01 17 14.4577 17 15.01V18.01C17 18.5623 17.4477 19.01 18 19.01H19C19.5523 19.01 20 18.5623 20 18.01V14.01ZM4 14.01V18.01C4 18.5623 4.44772 19.01 5 19.01H6C6.55228 19.01 7 18.5623 7 18.01V15.01C7 14.4577 6.55228 14.01 6 14.01H4Z" fill="#FF9900"/>
</svg>
