<svg width="148" height="33" viewBox="0 0 148 33" fill="none" xmlns="http://www.w3.org/2000/svg">
<path d="M0 16.0448V32.0895H3.41542H6.83084L6.89419 25.8882L6.98657 19.6869L11.7719 25.8882L16.5545 32.0895H20.5612C23.6994 32.0895 24.5071 31.9977 24.3197 31.6883C24.1033 31.35 14.9708 19.839 14.0998 18.7902C13.7277 18.389 14.2872 17.6495 18.0141 13.3598C20.4054 10.6144 22.3639 8.29912 22.3639 8.20734C22.3639 8.0841 20.6245 8.02118 18.4813 8.02118H14.6304L10.8085 12.5286L6.98921 17.0333L6.89683 8.51675L6.83348 0.000152588H3.41542H0V16.0448Z" fill="black"/>
<path d="M53.4248 16.0448V32.0895H56.8402H60.2583L60.3216 25.8882L60.414 19.6869L65.1967 25.8882L69.9793 32.0895H73.986C77.1243 32.0895 77.9319 31.9977 77.7445 31.6883C77.5281 31.35 68.3957 19.839 67.5246 18.7902C67.1525 18.389 67.712 17.6495 71.4389 13.3598C73.8302 10.6144 75.7887 8.29912 75.7887 8.20734C75.7887 8.0841 74.0493 8.02118 71.9061 8.02118H68.0552L64.2359 12.526L60.4167 17.0307L60.3243 8.51413L60.2583 0.000152588H56.8429H53.4274V16.0448H53.4248Z" fill="black"/>
<path d="M33.5473 7.90055C29.9445 8.85762 26.962 11.2936 25.2859 14.6577C22.0843 21.0766 24.8187 28.3897 31.5572 31.5362C35.5955 33.4189 40.8454 33.0177 44.6646 30.5477C51.3741 26.2579 52.4615 17.0622 46.9002 11.4771C43.4848 8.05263 38.2666 6.63407 33.5473 7.90055ZM39.8503 14.0101C40.4099 14.2251 41.2492 14.8124 41.7454 15.3054C45.5356 19.0707 43.7012 25.4267 38.4831 26.5673C34.6031 27.4641 30.7205 24.2835 30.7205 20.2428C30.7205 16.2939 33.3309 13.6089 37.2135 13.5774C38.1109 13.5774 39.2934 13.7636 39.8503 14.0101Z" fill="black"/>
<path d="M86.9719 7.90055C83.3691 8.85762 80.3865 11.2936 78.7105 14.6577C75.5115 21.0766 78.2433 28.3897 84.9844 31.5362C89.0227 33.4189 94.2726 33.0177 98.0918 30.5477C104.801 26.2579 105.889 17.0622 100.327 11.4771C96.9094 8.05263 91.6912 6.63407 86.9719 7.90055ZM93.2749 14.0101C93.8344 14.2251 94.6738 14.8124 95.17 15.3054C98.9602 19.0707 97.1258 25.4267 91.9076 26.5673C88.0277 27.4641 84.1451 24.2835 84.1451 20.2428C84.1451 16.2939 86.7555 13.6089 90.6381 13.5774C91.5355 13.5774 92.7179 13.7636 93.2749 14.0101Z" fill="black"/>
<path d="M116.074 7.74579C104.189 11.165 107.332 22.697 106.818 32.092C108.452 32.092 111.738 32.092 113.372 32.092C113.881 24.9363 110.864 14.1044 120.049 13.4227C120.094 11.9228 120.189 8.90476 120.237 7.40492C119.004 7.41278 117.193 7.47834 116.074 7.74579Z" fill="black"/>
<path d="M131.077 7.90055C127.474 8.85762 124.492 11.2936 122.815 14.6577C119.616 21.0766 122.348 28.3897 129.089 31.5362C133.128 33.4189 138.378 33.0177 142.197 30.5477C148.906 26.2579 149.994 17.0622 144.432 11.4771C141.017 8.05263 135.799 6.63407 131.077 7.90055ZM137.382 14.0101C137.942 14.2251 138.781 14.8124 139.278 15.3054C143.068 19.0707 141.233 25.4267 136.015 26.5673C132.133 27.4641 128.25 24.2835 128.25 20.2428C128.25 16.2939 130.86 13.6089 134.743 13.5774C135.643 13.5774 136.823 13.7636 137.382 14.0101Z" fill="black"/>
</svg>
