<svg width="25" height="25" viewBox="0 0 25 25" fill="none" xmlns="http://www.w3.org/2000/svg">
<path d="M17.7072 9.7905C18.0977 10.181 18.0977 10.8142 17.7072 11.2047C17.3167 11.5952 16.6835 11.5952 16.293 11.2047L13.502 8.41377V15.5C13.502 16.0523 13.0543 16.5 12.502 16.5C11.9498 16.5 11.502 16.0523 11.502 15.5V8.41368L8.70906 11.2067C8.31854 11.5972 7.68537 11.5972 7.29485 11.2067C6.90432 10.8161 6.90432 10.183 7.29485 9.79245L11.7949 5.29241C11.9824 5.10487 12.2368 4.99951 12.502 4.99951C12.7672 4.99951 13.0216 5.10487 13.2091 5.29241L17.7072 9.7905Z" fill="white"/>
<path fill-rule="evenodd" clip-rule="evenodd" d="M4.5 14.5C5.05228 14.5 5.5 14.9477 5.5 15.5V17.5C5.5 18.0523 5.94772 18.5 6.5 18.5H18.5C19.0523 18.5 19.5 18.0523 19.5 17.5V15.5C19.5 14.9477 19.9477 14.5 20.5 14.5C21.0523 14.5 21.5 14.9477 21.5 15.5V17.5C21.5 19.1569 20.1569 20.5 18.5 20.5H6.5C4.84315 20.5 3.5 19.1569 3.5 17.5V15.5C3.5 14.9477 3.94772 14.5 4.5 14.5Z" fill="white"/>
</svg>