<svg width="24" height="25" viewBox="0 0 24 25" fill="none" xmlns="http://www.w3.org/2000/svg">
<path fill-rule="evenodd" clip-rule="evenodd" d="M12 20.01C16.4183 20.01 20 16.4283 20 12.01C20 7.59173 16.4183 4.01001 12 4.01001C7.58172 4.01001 4 7.59173 4 12.01C4 16.4283 7.58172 20.01 12 20.01ZM12 22.01C17.5228 22.01 22 17.5329 22 12.01C22 6.48716 17.5228 2.01001 12 2.01001C6.47715 2.01001 2 6.48716 2 12.01C2 17.5329 6.47715 22.01 12 22.01Z" fill="#6F767E"/>
<path fill-rule="evenodd" clip-rule="evenodd" d="M10 14.5459L14.3923 12.01L10 9.47406L10 14.5459ZM15.3923 13.742C16.7256 12.9722 16.7256 11.0477 15.3923 10.2779L11 7.742C9.66667 6.9722 8 7.93446 8 9.47406V14.5459C8 16.0855 9.66667 17.0477 11 16.2779L15.3923 13.742Z" fill="#6F767E"/>
</svg>
