<?xml version="1.0" encoding="utf-8"?>
<!-- Generator: Adobe Illustrator 25.0.1, SVG Export Plug-In . SVG Version: 6.00 Build 0)  -->
<svg version="1.1" id="_x31_" xmlns="http://www.w3.org/2000/svg" xmlns:xlink="http://www.w3.org/1999/xlink" x="0px" y="0px"
	 viewBox="0 0 742.5 208.9" style="enable-background:new 0 0 742.5 208.9;" xml:space="preserve">
<style type="text/css">
	.st0{fill:#FF9900;}
	.st1{clip-path:url(#SVGID_2_);fill:#FFFFFF;}
	.st2{fill:#FFFFFF;}
</style>
<g>
	<path d="M207.9,6c-23-13.4-81.1,58.5-81.1,58.5l86,53.8C212.7,118.4,227.4,17.4,207.9,6z"/>
	<path d="M212.7,122.7c-0.8,0-1.6-0.2-2.3-0.7l-86-53.9c-1.1-0.7-1.8-1.7-2-3c-0.2-1.2,0.1-2.5,0.9-3.5c5.2-6.1,50.9-61.6,78-61.6
		c3.2,0,6.2,0.8,8.7,2.2c6.2,3.6,14.2,14.3,11.9,64.4c-1.2,26.6-4.9,52.1-4.9,52.3c-0.2,1.5-1.1,2.7-2.5,3.3
		C214,122.6,213.4,122.7,212.7,122.7z M133.3,63.5l76,47.6c1.2-9.2,3.1-26.8,4-44.9c2.1-47-5.3-55.1-7.6-56.4
		c-1.2-0.7-2.7-1.1-4.4-1.1C183.2,8.7,148.7,45.3,133.3,63.5z"/>
</g>
<path class="st0" d="M196.7,27.4C181,18.2,141,67.6,141,67.6l59,37C200,104.6,210.1,35.2,196.7,27.4z"/>
<g>
	<path d="M29.5,6c22.9-13.4,81.1,58.5,81.1,58.5l-86,53.8C24.6,118.4,9.9,17.4,29.5,6z"/>
	<path d="M24.6,122.7c-0.6,0-1.3-0.1-1.8-0.4c-1.3-0.6-2.3-1.9-2.5-3.3c0-0.3-3.7-25.8-4.9-52.3C13.1,16.5,21.1,5.9,27.3,2.2
		C29.9,0.8,32.8,0,36.1,0c27.1,0,72.8,55.5,77.9,61.8c0.8,1,1.1,2.2,0.9,3.5c-0.2,1.2-0.9,2.3-2,3l-86,53.9
		C26.2,122.5,25.4,122.7,24.6,122.7z M36.1,8.7c-1.7,0-3.1,0.3-4.4,1.1c-2.3,1.4-9.8,9.5-7.6,56.5c0.8,18.1,2.8,35.6,4,44.8l76-47.6
		C88.7,45.3,54.2,8.7,36.1,8.7z"/>
</g>
<path class="st0" d="M40.7,27.4c15.7-9.2,55.7,40.2,55.7,40.2l-59,37C37.3,104.6,27.2,35.2,40.7,27.4z"/>
<g>
	<g>
		<path id="SVGID_7_" class="st0" d="M213.5,88.6c-12.8-35-56.7-48.7-93.4-48.7c-36.6,0-80.6,13.6-93.3,48.7
			C15.8,118.8,5.7,160,5.7,160c12.6,35.9,70.6,45.8,114.4,45.8c43.9,0,101.8-9.9,114.4-45.8C234.6,160,224.5,118.8,213.5,88.6z"/>
	</g>
	<g>
		<defs>
			<path id="SVGID_1_" d="M213.5,88.6c-12.8-35-56.7-48.7-93.4-48.7c-36.6,0-80.6,13.6-93.3,48.7C15.8,118.8,5.7,160,5.7,160
				c12.6,35.9,70.6,45.8,114.4,45.8c43.9,0,101.8-9.9,114.4-45.8C234.6,160,224.5,118.8,213.5,88.6z"/>
		</defs>
		<clipPath id="SVGID_2_">
			<use xlink:href="#SVGID_1_"  style="overflow:visible;"/>
		</clipPath>
		<path class="st1" d="M178.8,160c-41.7,0-12.8-29.7-58.6-29.7S103.3,160,61.6,160c-38.7,0-95-1.3-95-1.3l88.7,60.6h64.9h64.9
			l88.7-60.6C273.8,158.7,217.5,160,178.8,160z"/>
	</g>
</g>
<path d="M185.1,137.1c0-6.2-5-11.2-11.2-11.2s-11.2,5-11.2,11.2s5,11.2,11.2,11.2S185.1,143.3,185.1,137.1z"/>
<path d="M55.7,137.1c0-6.2,5-11.2,11.2-11.2s11.2,5,11.2,11.2s-5,11.2-11.2,11.2S55.7,143.3,55.7,137.1z"/>
<path d="M132,148.2c-5.6,3.6-6.7-0.7-6.7-5.5c0-4.2,0.3-9.2-5.1-9.2c-5.5,0-5.1,5-5.1,9.2c0,4.8-1,9.1-6.7,5.5
	c-5.6-3.6-11.1,4.1-4,8.5c6.3,3.9,13.9,1,15.8-0.9c1.9,1.9,9.5,4.8,15.8,0.9C143.1,152.3,137.6,144.6,132,148.2z"/>
<path d="M127.7,133.1c-1.8-1.9-4.7-2.9-7.5-2.9l0,0c-2.8,0-5.7,0.9-7.5,2.9c-3.2,3.6-3.3,9.6,7.2,12.4h0.6
	C131,142.7,130.9,136.6,127.7,133.1z"/>
<path d="M118.7,208.9c-23.8,0-102.7-3.5-118.5-48.7c-0.3-0.8-0.3-1.7-0.1-2.5c0.1-0.4,10.3-41.8,21.2-71.8
	c13.9-38,61.2-51.5,97.4-51.5c36.3,0,83.6,13.5,97.4,51.5c11,30,21.1,71.4,21.2,71.8c0.2,0.8,0.2,1.7-0.1,2.5
	C221.3,205.4,142.5,208.9,118.7,208.9z M8.8,158.5c15,38.7,87.8,41.7,109.9,41.7s94.8-3,109.9-41.7c-1.8-7.2-10.9-43-20.6-69.6
	C195.6,55,152.2,43,118.7,43S41.8,55,29.4,88.8C19.7,115.5,10.6,151.3,8.8,158.5z"/>
<g>
	<g>
		<path class="st2" d="M344,119.1c-0.9-4,0.3-9,2.1-9c1,0,1.4,1.5,1.4,6s-0.4,6-1.4,6C345.3,122.1,344.4,120.8,344,119.1z"/>
		<path class="st2" d="M516,119.1c-0.9-4,0.3-9,2.1-9c1,0,1.4,1.5,1.4,6s-0.4,6-1.4,6C517.3,122.1,516.4,120.8,516,119.1z"/>
		<path class="st2" d="M658,119.1c-0.9-4,0.3-9,2.1-9c1,0,1.4,1.5,1.4,6s-0.4,6-1.4,6C659.3,122.1,658.4,120.8,658,119.1z"/>
		<path class="st2" d="M407.8,117.6c0.1-2.6,0.7-3.5,2-3.5c1.3,0,1.7,0.8,1.7,3.5c0,2.8-0.4,3.5-2,3.5
			C407.8,121.1,407.5,120.5,407.8,117.6z"/>
		<path class="st2" d="M579.8,117.6c0.1-2.6,0.7-3.5,2-3.5s1.7,0.8,1.7,3.5c0,2.8-0.4,3.5-2,3.5
			C579.8,121.1,579.5,120.5,579.8,117.6z"/>
		<path class="st2" d="M721.8,117.6c0.1-2.6,0.7-3.5,2-3.5s1.7,0.8,1.7,3.5c0,2.8-0.4,3.5-2,3.5
			C721.8,121.1,721.5,120.5,721.8,117.6z"/>
		<path class="st2" d="M610.5,111.9c0-3,1.3-5.8,2.6-5.8c0.9,0,1.4,1.2,1.4,3.5c0,2.8-0.4,3.5-2,3.5
			C611.4,113.1,610.5,112.5,610.5,111.9z"/>
		<path class="st2" d="M345.5,105.5c0-2.1,1.8-5.4,3-5.4c0.6,0,1,1.6,1,3.5c0,2.8-0.4,3.5-2,3.5
			C346.4,107.1,345.5,106.4,345.5,105.5z"/>
		<path class="st2" d="M517.5,105.5c0-2.1,1.8-5.4,3-5.4c0.6,0,1,1.6,1,3.5c0,2.8-0.4,3.5-2,3.5
			C518.4,107.1,517.5,106.4,517.5,105.5z"/>
		<path class="st2" d="M659.5,105.5c0-2.1,1.8-5.4,3-5.4c0.6,0,1,1.6,1,3.5c0,2.8-0.4,3.5-2,3.5
			C660.4,107.1,659.5,106.4,659.5,105.5z"/>
		<path class="st2" d="M612.5,103.5c0-2.1,1.8-5.4,3-5.4c0.6,0,1,1.6,1,3.5c0,2.8-0.4,3.5-2,3.5
			C613.4,105.1,612.5,104.4,612.5,103.5z"/>
	</g>
	<g>
		<path class="st2" d="M377.5,156c-6.9-1.4-16-6.3-21.4-11.6c-18.1-18-15.2-46.7,6.1-61.4c21.1-14.6,51.7-6.4,62.5,16.7
			C438.8,129.8,411.3,162.6,377.5,156z M395,136.2c14.7-6.7,17.4-26.1,5.1-36.9c-13.1-11.4-33.9-2.4-35.4,15.4
			c-0.8,9.2,5.2,18.9,13.8,22.3C382.5,138.6,390.7,138.2,395,136.2z"/>
		<path class="st2" d="M549.5,156c-6.9-1.4-16-6.3-21.4-11.6c-18.1-18-15.2-46.7,6.1-61.4c21.1-14.6,51.7-6.4,62.5,16.7
			C610.8,129.8,583.3,162.6,549.5,156z M567,136.2c14.7-6.7,17.4-26.1,5.1-36.9c-13.1-11.4-33.9-2.4-35.4,15.4
			c-0.8,9.2,5.2,18.9,13.8,22.3C554.5,138.6,562.7,138.2,567,136.2z"/>
		<path class="st2" d="M691.5,156c-6.9-1.4-16-6.3-21.4-11.6c-18.1-18-15.2-46.7,6.1-61.4c21.1-14.6,51.7-6.4,62.5,16.7
			C752.8,129.8,725.3,162.6,691.5,156z M709,136.2c14.7-6.7,17.4-26.1,5.1-36.9c-13.1-11.4-33.9-2.4-35.4,15.4
			c-0.8,9.2,5.2,18.9,13.8,22.3C696.5,138.6,704.7,138.2,709,136.2z"/>
		<path class="st2" d="M267.5,103.6V52.1h10h10v27.5c0,15.1,0.4,27.5,0.8,27.5s5.8-6,12-13.4c6.1-7.3,11.8-13.8,12.6-14.5
			c0.9-0.8,5.2-1.1,12.9-0.9l11.6,0.3l-13,15c-7.2,8.3-13.3,15.6-13.6,16.2c-0.3,0.7,7.2,10.9,16.6,22.7s17.1,21.7,17.1,22
			c0,0.3-5.4,0.6-12,0.6h-11.9l-15.8-20.5c-8.7-11.3-16.1-20.5-16.5-20.5c-0.5,0-0.8,9.2-0.8,20.5v20.5h-10h-10V103.6z"/>
		<path class="st2" d="M439.5,103.6V52.1h10h10v27.5c0,15.1,0.4,27.5,0.8,27.5s5.8-6,12-13.4c6.1-7.3,11.8-13.8,12.6-14.5
			c0.9-0.8,5.2-1.1,12.9-0.9l11.6,0.3l-13,15c-7.2,8.3-13.3,15.6-13.6,16.2c-0.3,0.7,7.2,10.9,16.6,22.7s17.1,21.7,17.1,22
			c0,0.3-5.4,0.6-12,0.6h-11.9l-15.8-20.5c-8.7-11.3-16.1-20.5-16.5-20.5c-0.5,0-0.8,9.2-0.8,20.5v20.5h-10h-10V103.6L439.5,103.6z"
			/>
		<path class="st2" d="M610.7,130.9c0.3-22.5,0.5-24.7,2.7-30.1c5.7-14.4,17.5-23.3,33.4-25.1l5.7-0.6v9.5c0,8.4-0.2,9.5-1.7,9.5
			c-2.8,0-11.6,4.5-14,7.1c-4.8,5.2-5.3,8.4-5.3,31.9v22h-10.6h-10.6L610.7,130.9z"/>
	</g>
</g>
</svg>
