<?xml version="1.0" encoding="utf-8"?>
<!-- Generator: Adobe Illustrator 25.0.1, SVG Export Plug-In . SVG Version: 6.00 Build 0)  -->
<svg version="1.1" id="_x31_" xmlns="http://www.w3.org/2000/svg" xmlns:xlink="http://www.w3.org/1999/xlink" x="0px" y="0px"
	 viewBox="0 0 475 104.8" style="enable-background:new 0 0 475 104.8;" xml:space="preserve">
<style type="text/css">
	.st0{fill:#FFFFFF;}
</style>
<g>
	<g>
		<path class="st0" d="M76.5,67c-0.9-4,0.3-9,2.1-9c1,0,1.4,1.5,1.4,6s-0.4,6-1.4,6C77.8,70,76.9,68.7,76.5,67z"/>
		<path class="st0" d="M248.5,67c-0.9-4,0.3-9,2.1-9c1,0,1.4,1.5,1.4,6s-0.4,6-1.4,6C249.8,70,248.9,68.7,248.5,67z"/>
		<path class="st0" d="M390.5,67c-0.9-4,0.3-9,2.1-9c1,0,1.4,1.5,1.4,6s-0.4,6-1.4,6C391.8,70,390.9,68.7,390.5,67z"/>
		<path class="st0" d="M140.3,65.5c0.1-2.6,0.7-3.5,2-3.5s1.7,0.8,1.7,3.5c0,2.8-0.4,3.5-2,3.5C140.3,69,140,68.4,140.3,65.5z"/>
		<path class="st0" d="M312.3,65.5c0.1-2.6,0.7-3.5,2-3.5s1.7,0.8,1.7,3.5c0,2.8-0.4,3.5-2,3.5C312.3,69,312,68.4,312.3,65.5z"/>
		<path class="st0" d="M454.3,65.5c0.1-2.6,0.7-3.5,2-3.5s1.7,0.8,1.7,3.5c0,2.8-0.4,3.5-2,3.5C454.3,69,454,68.4,454.3,65.5z"/>
		<path class="st0" d="M343,59.8c0-3,1.3-5.8,2.6-5.8c0.9,0,1.4,1.2,1.4,3.5c0,2.8-0.4,3.5-2,3.5C343.9,61,343,60.4,343,59.8z"/>
		<path class="st0" d="M78,53.4c0-2.1,1.8-5.4,3-5.4c0.6,0,1,1.6,1,3.5c0,2.8-0.4,3.5-2,3.5C78.9,55,78,54.3,78,53.4z"/>
		<path class="st0" d="M250,53.4c0-2.1,1.8-5.4,3-5.4c0.6,0,1,1.6,1,3.5c0,2.8-0.4,3.5-2,3.5C250.9,55,250,54.3,250,53.4z"/>
		<path class="st0" d="M392,53.4c0-2.1,1.8-5.4,3-5.4c0.6,0,1,1.6,1,3.5c0,2.8-0.4,3.5-2,3.5C392.9,55,392,54.3,392,53.4z"/>
		<path class="st0" d="M345,51.4c0-2.1,1.8-5.4,3-5.4c0.6,0,1,1.6,1,3.5c0,2.8-0.4,3.5-2,3.5C345.9,53,345,52.3,345,51.4z"/>
	</g>
	<g>
		<path class="st0" d="M110,103.9c-6.9-1.4-16-6.3-21.4-11.6c-18.1-18-15.2-46.7,6.1-61.4c21.1-14.6,51.7-6.4,62.5,16.7
			C171.3,77.7,143.8,110.5,110,103.9z M127.5,84.1c14.7-6.7,17.4-26.1,5.1-36.9c-13.1-11.4-33.9-2.4-35.4,15.4
			c-0.8,9.2,5.2,18.9,13.8,22.3C115,86.5,123.2,86.1,127.5,84.1z"/>
		<path class="st0" d="M282,103.9c-6.9-1.4-16-6.3-21.4-11.6c-18.1-18-15.2-46.7,6.1-61.4c21.1-14.6,51.7-6.4,62.5,16.7
			C343.3,77.7,315.8,110.5,282,103.9z M299.5,84.1c14.7-6.7,17.4-26.1,5.1-36.9c-13.1-11.4-33.9-2.4-35.4,15.4
			c-0.8,9.2,5.2,18.9,13.8,22.3C287,86.5,295.2,86.1,299.5,84.1z"/>
		<path class="st0" d="M424,103.9c-6.9-1.4-16-6.3-21.4-11.6c-18.1-18-15.2-46.7,6.1-61.4c21.1-14.6,51.7-6.4,62.5,16.7
			C485.3,77.7,457.8,110.5,424,103.9z M441.5,84.1c14.7-6.7,17.4-26.1,5.1-36.9c-13.1-11.4-33.9-2.4-35.4,15.4
			c-0.8,9.2,5.2,18.9,13.8,22.3C429,86.5,437.2,86.1,441.5,84.1z"/>
		<path class="st0" d="M0,51.5V0h10h10v27.5C20,42.6,20.4,55,20.8,55s5.8-6,12-13.4c6.1-7.3,11.8-13.8,12.6-14.5
			c0.9-0.8,5.2-1.1,12.9-0.9l11.6,0.3l-13,15c-7.2,8.3-13.3,15.6-13.6,16.2c-0.3,0.7,7.2,10.9,16.6,22.7s17.1,21.7,17.1,22
			c0,0.3-5.4,0.6-12,0.6H53.1L37.3,82.5C28.6,71.2,21.2,62,20.8,62c-0.5,0-0.8,9.2-0.8,20.5V103H10H0V51.5z"/>
		<path class="st0" d="M172,51.5V0h10h10v27.5c0,15.1,0.4,27.5,0.8,27.5c0.4,0,5.8-6,12-13.4c6.1-7.3,11.8-13.8,12.6-14.5
			c0.9-0.8,5.2-1.1,12.9-0.9l11.6,0.3l-13,15c-7.2,8.3-13.3,15.6-13.6,16.2c-0.3,0.7,7.2,10.9,16.6,22.7c9.4,11.8,17.1,21.7,17.1,22
			c0,0.3-5.4,0.6-12,0.6h-11.9l-15.8-20.5C200.6,71.2,193.2,62,192.8,62c-0.5,0-0.8,9.2-0.8,20.5V103h-10h-10L172,51.5L172,51.5z"/>
		<path class="st0" d="M343.2,78.8c0.3-22.5,0.5-24.7,2.7-30.1c5.7-14.4,17.5-23.3,33.4-25.1L385,23v9.5c0,8.4-0.2,9.5-1.7,9.5
			c-2.8,0-11.6,4.5-14,7.1c-4.8,5.2-5.3,8.4-5.3,31.9v22h-10.6h-10.6L343.2,78.8z"/>
	</g>
</g>
</svg>
