<?xml version="1.0" encoding="utf-8"?>
<!-- Generator: Adobe Illustrator 25.0.1, SVG Export Plug-In . SVG Version: 6.00 Build 0)  -->
<svg version="1.1" id="_x31_" xmlns="http://www.w3.org/2000/svg" xmlns:xlink="http://www.w3.org/1999/xlink" x="0px" y="0px"
	 viewBox="0 0 237.6 208.9" style="enable-background:new 0 0 237.6 208.9;" xml:space="preserve">
<style type="text/css">
	.st0{fill:#FFEFCB;}
	.st1{fill:#FFC35F;}
	.st2{fill:#480B00;}
	.st3{fill:#FFF8D8;}
	.st4{fill:none;}
	.st5{clip-path:url(#SVGID_2_);fill:#FFF8D8;}
	.st6{fill:#FFFFFF;}
	.st7{fill:#F6A75A;}
	.st8{fill:#CF7004;}
	.st9{fill:#F3A31A;}
	.st10{fill:#FF8FDB;}
	.st11{fill:#FFCCCA;}
	.st12{fill:#00B7FF;}
	.st13{fill:#F3A8CA;}
	.st14{fill:#1B9D33;}
	.st15{fill:#81F181;}
	.st16{fill:#FAF19B;}
	.st17{fill:#77D981;}
	.st18{clip-path:url(#SVGID_6_);fill:#FAF19B;}
	.st19{fill:#FF9900;}
	.st20{clip-path:url(#SVGID_8_);fill:#FFFFFF;}
	.st21{clip-path:url(#SVGID_10_);fill:#00B7FF;}
	.st22{fill:#F8C900;}
	.st23{fill:#C8AD90;}
	.st24{fill:#470B00;}
	.st25{fill:#FFDAD9;}
	.st26{fill:#C88C90;}
	.st27{fill:#FFD300;}
	.st28{fill:#FF4040;}
	.st29{fill:#F02727;}
	.st30{fill:#FFAD00;}
	.st31{fill:#FFAFB4;}
	.st32{fill:#D64F00;}
	.st33{fill:#FFEE0B;}
	.st34{fill:#1D1D1B;}
</style>
<g>
	<path d="M208,6C185-7.4,126.9,64.5,126.9,64.5l86,53.8C212.8,118.4,227.5,17.4,208,6z"/>
	<path d="M212.8,122.7c-0.8,0-1.6-0.2-2.3-0.7l-86-53.9c-1.1-0.7-1.8-1.7-2-3c-0.2-1.2,0.1-2.5,0.9-3.5C128.6,55.5,174.3,0,201.4,0
		c3.2,0,6.2,0.8,8.7,2.2c6.2,3.6,14.2,14.3,11.9,64.4c-1.2,26.6-4.9,52.1-4.9,52.3c-0.2,1.5-1.1,2.7-2.5,3.3
		C214.1,122.6,213.5,122.7,212.8,122.7z M133.4,63.5l76,47.6c1.2-9.2,3.1-26.8,4-44.9c2.1-47-5.3-55.1-7.6-56.4
		c-1.2-0.7-2.7-1.1-4.4-1.1C183.3,8.7,148.8,45.3,133.4,63.5z"/>
</g>
<path class="st19" d="M196.8,27.4c-15.7-9.2-55.7,40.2-55.7,40.2l59,37C200.1,104.6,210.2,35.2,196.8,27.4z"/>
<g>
	<path d="M29.6,6c22.9-13.4,81.1,58.5,81.1,58.5l-86,53.8C24.7,118.4,10,17.4,29.6,6z"/>
	<path d="M24.7,122.7c-0.6,0-1.3-0.1-1.8-0.4c-1.3-0.6-2.3-1.9-2.5-3.3c0-0.3-3.7-25.8-4.9-52.3C13.2,16.5,21.2,5.9,27.4,2.2
		C30,0.8,32.9,0,36.2,0c27.1,0,72.8,55.5,77.9,61.8c0.8,1,1.1,2.2,0.9,3.5c-0.2,1.2-0.9,2.3-2,3l-86,53.9
		C26.3,122.5,25.5,122.7,24.7,122.7z M36.2,8.7c-1.7,0-3.1,0.3-4.4,1.1c-2.3,1.4-9.8,9.5-7.6,56.5c0.8,18.1,2.8,35.6,4,44.8l76-47.6
		C88.8,45.3,54.3,8.7,36.2,8.7z"/>
</g>
<path class="st19" d="M40.8,27.4c15.7-9.2,55.7,40.2,55.7,40.2l-59,37C37.4,104.6,27.3,35.2,40.8,27.4z"/>
<g>
	<defs>
		<path id="SVGID_7_" d="M213.6,88.6c-12.8-35-56.7-48.7-93.4-48.7c-36.6,0-80.6,13.6-93.3,48.7C15.9,118.8,5.8,160,5.8,160
			c12.6,35.9,70.6,45.8,114.4,45.8c43.9,0,101.8-9.9,114.4-45.8C234.7,160,224.6,118.8,213.6,88.6z"/>
	</defs>
	<use xlink:href="#SVGID_7_"  style="overflow:visible;fill:#FF9900;"/>
	<clipPath id="SVGID_2_">
		<use xlink:href="#SVGID_7_"  style="overflow:visible;"/>
	</clipPath>
	<path style="clip-path:url(#SVGID_2_);fill:#FFFFFF;" d="M178.9,160c-41.7,0-12.8-29.7-58.6-29.7c-45.8,0-16.9,29.7-58.6,29.7
		c-38.7,0-95-1.3-95-1.3l88.7,60.6h64.9h64.9l88.7-60.6C273.9,158.7,217.6,160,178.9,160z"/>
</g>
<path d="M185.2,137.1c0-6.2-5-11.2-11.2-11.2c-6.2,0-11.2,5-11.2,11.2c0,6.2,5,11.2,11.2,11.2C180.2,148.3,185.2,143.3,185.2,137.1z
	"/>
<path d="M55.8,137.1c0-6.2,5-11.2,11.2-11.2c6.2,0,11.2,5,11.2,11.2c0,6.2-5,11.2-11.2,11.2C60.8,148.3,55.8,143.3,55.8,137.1z"/>
<path d="M132.1,148.2c-5.6,3.6-6.7-0.7-6.7-5.5c0-4.2,0.3-9.2-5.1-9.2c-5.5,0-5.1,5-5.1,9.2c0,4.8-1,9.1-6.7,5.5
	c-5.6-3.6-11.1,4.1-4,8.5c6.3,3.9,13.9,1,15.8-0.9c1.9,1.9,9.5,4.8,15.8,0.9C143.2,152.3,137.7,144.6,132.1,148.2z"/>
<path d="M127.8,133.1c-1.8-1.9-4.7-2.9-7.5-2.9l0,0c-2.8,0-5.7,0.9-7.5,2.9c-3.2,3.6-3.3,9.6,7.2,12.4h0.6
	C131.1,142.7,131,136.6,127.8,133.1z"/>
<path d="M118.8,208.9c-23.8,0-102.7-3.5-118.5-48.7c-0.3-0.8-0.3-1.7-0.1-2.5c0.1-0.4,10.3-41.8,21.2-71.8
	c13.9-38,61.2-51.5,97.4-51.5c36.3,0,83.6,13.5,97.4,51.5c11,30,21.1,71.4,21.2,71.8c0.2,0.8,0.2,1.7-0.1,2.5
	C221.4,205.4,142.6,208.9,118.8,208.9z M8.9,158.5c15,38.7,87.8,41.7,109.9,41.7c22.1,0,94.8-3,109.9-41.7
	c-1.8-7.2-10.9-43-20.6-69.6C195.7,55,152.3,43,118.8,43c-33.5,0-76.9,12-89.3,45.8C19.8,115.5,10.7,151.3,8.9,158.5z"/>
</svg>
